<svg width="145" height="43" viewBox="0 0 145 43" fill="none" xmlns="http://www.w3.org/2000/svg">
<rect width="42" height="42" rx="12" fill="#4D7C0F" fill-opacity="0.85098"/>
<path d="M17 11V15M25 11V15M30 23V15C30 14.4696 29.7893 13.9609 29.4142 13.5858C29.0391 13.2107 28.5304 13 28 13H14C13.4696 13 12.9609 13.2107 12.5858 13.5858C12.2107 13.9609 12 14.4696 12 15V29C12 29.5304 12.2107 30.0391 12.5858 30.4142C12.9609 30.7893 13.4696 31 14 31H22M12 19H30M25 29L27 31L31 27" stroke="#84CC16" stroke-width="2" stroke-linecap="round" stroke-linejoin="round"/>
<path d="M64.9176 19.6562H61.1847C61.1165 19.1733 60.9773 18.7443 60.767 18.3693C60.5568 17.9886 60.2869 17.6648 59.9574 17.3977C59.6278 17.1307 59.2472 16.9261 58.8153 16.7841C58.3892 16.642 57.9261 16.571 57.4261 16.571C56.5227 16.571 55.7358 16.7955 55.0653 17.2443C54.3949 17.6875 53.875 18.3352 53.5057 19.1875C53.1364 20.0341 52.9517 21.0625 52.9517 22.2727C52.9517 23.517 53.1364 24.5625 53.5057 25.4091C53.8807 26.2557 54.4034 26.8949 55.0739 27.3267C55.7443 27.7585 56.5199 27.9744 57.4006 27.9744C57.8949 27.9744 58.3523 27.9091 58.7727 27.7784C59.1989 27.6477 59.5767 27.4574 59.9062 27.2074C60.2358 26.9517 60.5085 26.642 60.7244 26.2784C60.946 25.9148 61.0994 25.5 61.1847 25.0341L64.9176 25.0511C64.821 25.8523 64.5795 26.625 64.1932 27.3693C63.8125 28.108 63.2983 28.7699 62.6506 29.3551C62.0085 29.9347 61.2415 30.3949 60.3494 30.7358C59.4631 31.071 58.4602 31.2386 57.3409 31.2386C55.7841 31.2386 54.392 30.8864 53.1648 30.1818C51.9432 29.4773 50.9773 28.4574 50.267 27.1222C49.5625 25.7869 49.2102 24.1705 49.2102 22.2727C49.2102 20.3693 49.5682 18.75 50.2841 17.4148C51 16.0795 51.9716 15.0625 53.1989 14.3636C54.4261 13.6591 55.8068 13.3068 57.3409 13.3068C58.3523 13.3068 59.2898 13.4489 60.1534 13.733C61.0227 14.017 61.7926 14.4318 62.4631 14.9773C63.1335 15.517 63.679 16.179 64.0994 16.9631C64.5256 17.7472 64.7983 18.6449 64.9176 19.6562ZM71.1264 23.4318V31H67.4957V13.5455H71.0241V20.2188H71.1776C71.473 19.446 71.9503 18.8409 72.6094 18.4034C73.2685 17.9602 74.0952 17.7386 75.0895 17.7386C75.9986 17.7386 76.7912 17.9375 77.4673 18.3352C78.1491 18.7273 78.6776 19.2926 79.0526 20.0312C79.4332 20.7642 79.6207 21.642 79.6151 22.6648V31H75.9844V23.3125C75.9901 22.5057 75.7855 21.8778 75.3707 21.429C74.9616 20.9801 74.3878 20.7557 73.6491 20.7557C73.1548 20.7557 72.7173 20.8608 72.3366 21.071C71.9616 21.2812 71.6662 21.5881 71.4503 21.9915C71.2401 22.3892 71.1321 22.8693 71.1264 23.4318ZM88.4382 31.2557C87.0916 31.2557 85.9325 30.983 84.9609 30.4375C83.995 29.8864 83.2507 29.108 82.728 28.1023C82.2053 27.0909 81.9439 25.8949 81.9439 24.5142C81.9439 23.1676 82.2053 21.9858 82.728 20.9688C83.2507 19.9517 83.9865 19.1591 84.9354 18.5909C85.8899 18.0227 87.0092 17.7386 88.2933 17.7386C89.157 17.7386 89.9609 17.8778 90.7053 18.1562C91.4553 18.429 92.1087 18.8409 92.6655 19.392C93.228 19.9432 93.6655 20.6364 93.978 21.4716C94.2905 22.3011 94.4467 23.2727 94.4467 24.3864V25.3835H83.3928V23.1335H91.0291C91.0291 22.6108 90.9155 22.1477 90.6882 21.7443C90.4609 21.3409 90.1456 21.0256 89.7422 20.7983C89.3445 20.5653 88.8814 20.4489 88.353 20.4489C87.8018 20.4489 87.3132 20.5767 86.8871 20.8324C86.4666 21.0824 86.1371 21.4205 85.8984 21.8466C85.6598 22.267 85.5376 22.7358 85.532 23.2528V25.392C85.532 26.0398 85.6513 26.5994 85.8899 27.071C86.1342 27.5426 86.478 27.9062 86.9212 28.1619C87.3643 28.4176 87.8899 28.5455 88.4979 28.5455C88.9013 28.5455 89.2706 28.4886 89.6058 28.375C89.9411 28.2614 90.228 28.0909 90.4666 27.8636C90.7053 27.6364 90.8871 27.358 91.0121 27.0284L94.37 27.25C94.1996 28.0568 93.8501 28.7614 93.3217 29.3636C92.799 29.9602 92.1229 30.4261 91.2933 30.7614C90.4695 31.0909 89.5178 31.2557 88.4382 31.2557ZM102.731 31.2557C101.39 31.2557 100.237 30.9716 99.2706 30.4034C98.3104 29.8295 97.5717 29.0341 97.0547 28.017C96.5433 27 96.2876 25.8295 96.2876 24.5057C96.2876 23.1648 96.5462 21.9886 97.0632 20.9773C97.5859 19.9602 98.3274 19.1676 99.2876 18.5994C100.248 18.0256 101.39 17.7386 102.714 17.7386C103.856 17.7386 104.856 17.946 105.714 18.3608C106.572 18.7756 107.251 19.358 107.751 20.108C108.251 20.858 108.526 21.7386 108.577 22.75H105.151C105.055 22.0966 104.799 21.571 104.384 21.1733C103.975 20.7699 103.438 20.5682 102.773 20.5682C102.211 20.5682 101.719 20.7216 101.299 21.0284C100.884 21.3295 100.56 21.7699 100.327 22.3494C100.094 22.929 99.978 23.6307 99.978 24.4545C99.978 25.2898 100.092 26 100.319 26.5852C100.552 27.1705 100.879 27.6165 101.299 27.9233C101.719 28.2301 102.211 28.3835 102.773 28.3835C103.188 28.3835 103.56 28.2983 103.89 28.1278C104.225 27.9574 104.501 27.7102 104.717 27.3864C104.938 27.0568 105.083 26.6619 105.151 26.2017H108.577C108.521 27.2017 108.248 28.0824 107.759 28.8438C107.276 29.5994 106.609 30.1903 105.756 30.6165C104.904 31.0426 103.896 31.2557 102.731 31.2557ZM114.192 27.233L114.2 22.8778H114.729L118.922 17.9091H123.089L117.456 24.4886H116.595L114.192 27.233ZM110.902 31V13.5455H114.533V31H110.902ZM119.084 31L115.232 25.2983L117.652 22.733L123.337 31H119.084ZM128.629 13.5455V31H124.939V13.5455H128.629ZM138.56 17.9091V20.6364H130.677V17.9091H138.56ZM132.467 14.7727H136.097V26.9773C136.097 27.3125 136.148 27.5739 136.251 27.7614C136.353 27.9432 136.495 28.071 136.677 28.1449C136.864 28.2187 137.08 28.2557 137.325 28.2557C137.495 28.2557 137.665 28.2415 137.836 28.2131C138.006 28.179 138.137 28.1534 138.228 28.1364L138.799 30.8381C138.617 30.8949 138.362 30.9602 138.032 31.0341C137.702 31.1136 137.302 31.1619 136.83 31.179C135.955 31.2131 135.188 31.0966 134.529 30.8295C133.876 30.5625 133.367 30.1477 133.004 29.5852C132.64 29.0227 132.461 28.3125 132.467 27.4545V14.7727Z" fill="white"/>
<path d="M48.5284 36.6364H49.1591L50.642 40.2585H50.6932L52.1761 36.6364H52.8068V41H52.3125V37.6847H52.2699L50.9062 41H50.429L49.0653 37.6847H49.0227V41H48.5284V36.6364ZM56.4412 41.0767C56.2338 41.0767 56.0456 41.0376 55.8766 40.9595C55.7075 40.88 55.5733 40.7656 55.4739 40.6165C55.3744 40.4659 55.3247 40.2841 55.3247 40.071C55.3247 39.8835 55.3616 39.7315 55.4355 39.6151C55.5094 39.4972 55.6081 39.4048 55.7317 39.3381C55.8552 39.2713 55.9916 39.2216 56.1408 39.1889C56.2913 39.1548 56.4426 39.1278 56.5946 39.108C56.7935 39.0824 56.9547 39.0632 57.0783 39.0504C57.2033 39.0362 57.2942 39.0128 57.351 38.9801C57.4092 38.9474 57.4383 38.8906 57.4383 38.8097V38.7926C57.4383 38.5824 57.3808 38.419 57.2658 38.3026C57.1521 38.1861 56.9795 38.1278 56.748 38.1278C56.5079 38.1278 56.3197 38.1804 56.1834 38.2855C56.047 38.3906 55.9511 38.5028 55.8957 38.6222L55.4185 38.4517C55.5037 38.2528 55.6173 38.098 55.7594 37.9872C55.9028 37.875 56.0591 37.7969 56.2281 37.7528C56.3986 37.7074 56.5662 37.6847 56.731 37.6847C56.8361 37.6847 56.9568 37.6974 57.0932 37.723C57.231 37.7472 57.3638 37.7976 57.4916 37.8743C57.6209 37.951 57.7281 38.0668 57.8133 38.2216C57.8986 38.3764 57.9412 38.5838 57.9412 38.8438V41H57.4383V40.5568H57.4128C57.3787 40.6278 57.3219 40.7038 57.2423 40.7848C57.1628 40.8658 57.057 40.9347 56.9249 40.9915C56.7927 41.0483 56.6315 41.0767 56.4412 41.0767ZM56.5179 40.625C56.7168 40.625 56.8844 40.5859 57.0207 40.5078C57.1585 40.4297 57.2622 40.3288 57.3318 40.2053C57.4028 40.0817 57.4383 39.9517 57.4383 39.8153V39.3551C57.417 39.3807 57.3702 39.4041 57.2977 39.4254C57.2267 39.4453 57.1443 39.4631 57.0506 39.4787C56.9582 39.4929 56.868 39.5057 56.78 39.517C56.6933 39.527 56.623 39.5355 56.569 39.5426C56.4383 39.5597 56.3162 39.5874 56.2025 39.6257C56.0903 39.6626 55.9994 39.7187 55.9298 39.794C55.8616 39.8679 55.8275 39.9687 55.8275 40.0966C55.8275 40.2713 55.8922 40.4034 56.0214 40.4929C56.1521 40.581 56.3176 40.625 56.5179 40.625ZM61.0077 39.8068L60.9992 39.1847H61.1015L62.5333 37.7273H63.1555L61.6299 39.2699H61.5873L61.0077 39.8068ZM60.539 41V36.6364H61.0418V41H60.539ZM62.6185 41L61.3401 39.3807L61.6981 39.0312L63.2577 41H62.6185ZM66.72 41.0682C66.4047 41.0682 66.1327 40.9986 65.904 40.8594C65.6767 40.7188 65.5013 40.5227 65.3777 40.2713C65.2556 40.0185 65.1945 39.7244 65.1945 39.3892C65.1945 39.054 65.2556 38.7585 65.3777 38.5028C65.5013 38.2457 65.6732 38.0455 65.8933 37.902C66.1149 37.7571 66.3735 37.6847 66.6689 37.6847C66.8394 37.6847 67.0077 37.7131 67.1739 37.7699C67.3401 37.8267 67.4913 37.919 67.6277 38.0469C67.7641 38.1733 67.8727 38.3409 67.9537 38.5497C68.0347 38.7585 68.0752 39.0156 68.0752 39.321V39.5341H65.5524V39.0994H67.5638C67.5638 38.9148 67.5269 38.75 67.453 38.6051C67.3806 38.4602 67.2769 38.3459 67.1419 38.2621C67.0084 38.1783 66.8507 38.1364 66.6689 38.1364C66.4686 38.1364 66.2953 38.1861 66.149 38.2855C66.0041 38.3835 65.8926 38.5114 65.8145 38.669C65.7364 38.8267 65.6973 38.9957 65.6973 39.1761V39.4659C65.6973 39.7131 65.7399 39.9226 65.8252 40.0945C65.9118 40.2649 66.0318 40.3949 66.1852 40.4844C66.3386 40.5724 66.5169 40.6165 66.72 40.6165C66.8521 40.6165 66.9715 40.598 67.078 40.5611C67.186 40.5227 67.279 40.4659 67.3571 40.3906C67.4352 40.3139 67.4956 40.2187 67.5382 40.1051L68.024 40.2415C67.9729 40.4062 67.8869 40.5511 67.7662 40.6761C67.6455 40.7997 67.4963 40.8963 67.3188 40.9659C67.1412 41.0341 66.9416 41.0682 66.72 41.0682ZM74.2114 42.2273C74.1262 42.2273 74.0502 42.2202 73.9835 42.206C73.9167 42.1932 73.8705 42.1804 73.845 42.1676L73.9728 41.7244C74.095 41.7557 74.2029 41.767 74.2967 41.7585C74.3904 41.75 74.4735 41.7081 74.546 41.6328C74.6198 41.5589 74.6873 41.4389 74.7484 41.2727L74.8421 41.017L73.6319 37.7273H74.1773L75.0808 40.3352H75.1148L76.0183 37.7273H76.5637L75.1745 41.4773C75.112 41.6463 75.0346 41.7862 74.9423 41.897C74.8499 42.0092 74.7427 42.0923 74.6205 42.1463C74.4998 42.2003 74.3634 42.2273 74.2114 42.2273ZM80.1198 41.0682C79.8243 41.0682 79.5651 40.9979 79.3421 40.8572C79.1205 40.7166 78.9472 40.5199 78.8222 40.267C78.6986 40.0142 78.6368 39.7187 78.6368 39.3807C78.6368 39.0398 78.6986 38.7422 78.8222 38.4879C78.9472 38.2337 79.1205 38.0362 79.3421 37.8956C79.5651 37.755 79.8243 37.6847 80.1198 37.6847C80.4152 37.6847 80.6737 37.755 80.8953 37.8956C81.1184 38.0362 81.2916 38.2337 81.4152 38.4879C81.5402 38.7422 81.6027 39.0398 81.6027 39.3807C81.6027 39.7187 81.5402 40.0142 81.4152 40.267C81.2916 40.5199 81.1184 40.7166 80.8953 40.8572C80.6737 40.9979 80.4152 41.0682 80.1198 41.0682ZM80.1198 40.6165C80.3442 40.6165 80.5289 40.5589 80.6737 40.4439C80.8186 40.3288 80.9259 40.1776 80.9955 39.9901C81.0651 39.8026 81.0999 39.5994 81.0999 39.3807C81.0999 39.1619 81.0651 38.9581 80.9955 38.7692C80.9259 38.5803 80.8186 38.4276 80.6737 38.3111C80.5289 38.1946 80.3442 38.1364 80.1198 38.1364C79.8953 38.1364 79.7107 38.1946 79.5658 38.3111C79.4209 38.4276 79.3137 38.5803 79.2441 38.7692C79.1745 38.9581 79.1397 39.1619 79.1397 39.3807C79.1397 39.5994 79.1745 39.8026 79.2441 39.9901C79.3137 40.1776 79.4209 40.3288 79.5658 40.4439C79.7107 40.5589 79.8953 40.6165 80.1198 40.6165ZM86.1128 39.6619V37.7273H86.6156V41H86.1128V40.446H86.0787C86.002 40.6122 85.8827 40.7536 85.7208 40.87C85.5588 40.9851 85.3543 41.0426 85.1071 41.0426C84.9026 41.0426 84.7208 40.9979 84.5617 40.9084C84.4026 40.8175 84.2776 40.6811 84.1867 40.4993C84.0958 40.3161 84.0503 40.0852 84.0503 39.8068V37.7273H84.5531V39.7727C84.5531 40.0114 84.6199 40.2017 84.7534 40.3438C84.8884 40.4858 85.0602 40.5568 85.2691 40.5568C85.3941 40.5568 85.5212 40.5249 85.6504 40.4609C85.7811 40.397 85.8905 40.299 85.9786 40.1669C86.0681 40.0348 86.1128 39.8665 86.1128 39.6619ZM89.2166 41V37.7273H89.7024V38.2216H89.7365C89.7962 38.0597 89.9041 37.9283 90.0604 37.8274C90.2166 37.7266 90.3928 37.6761 90.5888 37.6761C90.6257 37.6761 90.6719 37.6768 90.7273 37.6783C90.7827 37.6797 90.8246 37.6818 90.853 37.6847V38.196C90.836 38.1918 90.7969 38.1854 90.7358 38.1768C90.6761 38.1669 90.6129 38.1619 90.5462 38.1619C90.3871 38.1619 90.245 38.1953 90.12 38.2621C89.9965 38.3274 89.8985 38.4183 89.826 38.5348C89.755 38.6499 89.7195 38.7812 89.7195 38.929V41H89.2166ZM97.7324 41.0682C97.4596 41.0682 97.2189 40.9993 97.01 40.8615C96.8012 40.7223 96.6379 40.5263 96.52 40.2734C96.4021 40.0192 96.3431 39.7188 96.3431 39.3722C96.3431 39.0284 96.4021 38.7301 96.52 38.4773C96.6379 38.2244 96.802 38.0291 97.0122 37.8913C97.2224 37.7536 97.4653 37.6847 97.7409 37.6847C97.9539 37.6847 98.1223 37.7202 98.2458 37.7912C98.3708 37.8608 98.466 37.9403 98.5314 38.0298C98.5981 38.1179 98.65 38.1903 98.6869 38.2472H98.7295V36.6364H99.2324V41H98.7466V40.4972H98.6869C98.65 40.5568 98.5974 40.6321 98.5292 40.723C98.461 40.8125 98.3637 40.8928 98.2373 40.9638C98.1109 41.0334 97.9426 41.0682 97.7324 41.0682ZM97.8005 40.6165C98.0022 40.6165 98.1727 40.5639 98.3119 40.4588C98.4511 40.3523 98.5569 40.2053 98.6294 40.0178C98.7018 39.8288 98.738 39.6108 98.738 39.3636C98.738 39.1193 98.7025 38.9055 98.6315 38.7223C98.5605 38.5376 98.4554 38.3942 98.3162 38.2919C98.177 38.1882 98.0051 38.1364 97.8005 38.1364C97.5875 38.1364 97.4099 38.1911 97.2679 38.3004C97.1272 38.4084 97.0214 38.5554 96.9504 38.7415C96.8808 38.9261 96.846 39.1335 96.846 39.3636C96.846 39.5966 96.8815 39.8082 96.9525 39.9986C97.025 40.1875 97.1315 40.3381 97.2721 40.4503C97.4142 40.5611 97.5903 40.6165 97.8005 40.6165ZM102.866 41.0767C102.659 41.0767 102.471 41.0376 102.302 40.9595C102.133 40.88 101.998 40.7656 101.899 40.6165C101.799 40.4659 101.75 40.2841 101.75 40.071C101.75 39.8835 101.787 39.7315 101.861 39.6151C101.934 39.4972 102.033 39.4048 102.157 39.3381C102.28 39.2713 102.417 39.2216 102.566 39.1889C102.716 39.1548 102.868 39.1278 103.02 39.108C103.218 39.0824 103.38 39.0632 103.503 39.0504C103.628 39.0362 103.719 39.0128 103.776 38.9801C103.834 38.9474 103.863 38.8906 103.863 38.8097V38.7926C103.863 38.5824 103.806 38.419 103.691 38.3026C103.577 38.1861 103.405 38.1278 103.173 38.1278C102.933 38.1278 102.745 38.1804 102.608 38.2855C102.472 38.3906 102.376 38.5028 102.321 38.6222L101.843 38.4517C101.929 38.2528 102.042 38.098 102.184 37.9872C102.328 37.875 102.484 37.7969 102.653 37.7528C102.824 37.7074 102.991 37.6847 103.156 37.6847C103.261 37.6847 103.382 37.6974 103.518 37.723C103.656 37.7472 103.789 37.7976 103.917 37.8743C104.046 37.951 104.153 38.0668 104.238 38.2216C104.324 38.3764 104.366 38.5838 104.366 38.8438V41H103.863V40.5568H103.838C103.804 40.6278 103.747 40.7038 103.667 40.7848C103.588 40.8658 103.482 40.9347 103.35 40.9915C103.218 41.0483 103.057 41.0767 102.866 41.0767ZM102.943 40.625C103.142 40.625 103.309 40.5859 103.446 40.5078C103.584 40.4297 103.687 40.3288 103.757 40.2053C103.828 40.0817 103.863 39.9517 103.863 39.8153V39.3551C103.842 39.3807 103.795 39.4041 103.723 39.4254C103.652 39.4453 103.569 39.4631 103.476 39.4787C103.383 39.4929 103.293 39.5057 103.205 39.517C103.118 39.527 103.048 39.5355 102.994 39.5426C102.863 39.5597 102.741 39.5874 102.628 39.6257C102.515 39.6626 102.424 39.7187 102.355 39.794C102.287 39.8679 102.253 39.9687 102.253 40.0966C102.253 40.2713 102.317 40.4034 102.446 40.4929C102.577 40.581 102.743 40.625 102.943 40.625ZM107.171 42.2273C107.085 42.2273 107.009 42.2202 106.943 42.206C106.876 42.1932 106.83 42.1804 106.804 42.1676L106.932 41.7244C107.054 41.7557 107.162 41.767 107.256 41.7585C107.35 41.75 107.433 41.7081 107.505 41.6328C107.579 41.5589 107.647 41.4389 107.708 41.2727L107.801 41.017L106.591 37.7273H107.137L108.04 40.3352H108.074L108.977 37.7273H109.523L108.134 41.4773C108.071 41.6463 107.994 41.7862 107.901 41.897C107.809 42.0092 107.702 42.0923 107.58 42.1463C107.459 42.2003 107.323 42.2273 107.171 42.2273ZM117.552 38.4602L117.101 38.5881C117.072 38.5128 117.03 38.4396 116.975 38.3686C116.921 38.2962 116.847 38.2365 116.753 38.1896C116.66 38.1428 116.54 38.1193 116.393 38.1193C116.193 38.1193 116.026 38.1655 115.893 38.2578C115.76 38.3487 115.694 38.4645 115.694 38.6051C115.694 38.7301 115.74 38.8288 115.831 38.9013C115.922 38.9737 116.064 39.0341 116.257 39.0824L116.743 39.2017C117.035 39.2727 117.253 39.3814 117.397 39.5277C117.54 39.6726 117.612 39.8594 117.612 40.0881C117.612 40.2756 117.558 40.4432 117.45 40.5909C117.344 40.7386 117.194 40.8551 117.003 40.9403C116.811 41.0256 116.588 41.0682 116.334 41.0682C116 41.0682 115.723 40.9957 115.505 40.8509C115.286 40.706 115.147 40.4943 115.089 40.2159L115.567 40.0966C115.612 40.2727 115.698 40.4048 115.824 40.4929C115.952 40.581 116.119 40.625 116.325 40.625C116.559 40.625 116.745 40.5753 116.883 40.4759C117.022 40.375 117.092 40.2543 117.092 40.1136C117.092 40 117.052 39.9048 116.973 39.8281C116.893 39.75 116.771 39.6918 116.606 39.6534L116.061 39.5256C115.761 39.4545 115.541 39.3445 115.4 39.1953C115.261 39.0447 115.192 38.8565 115.192 38.6307C115.192 38.446 115.243 38.2827 115.347 38.1406C115.452 37.9986 115.595 37.8871 115.775 37.8061C115.957 37.7251 116.163 37.6847 116.393 37.6847C116.717 37.6847 116.971 37.7557 117.156 37.8977C117.342 38.0398 117.474 38.2273 117.552 38.4602ZM120.049 41V37.7273H120.552V41H120.049ZM120.305 37.1818C120.207 37.1818 120.122 37.1484 120.051 37.0817C119.981 37.0149 119.947 36.9347 119.947 36.8409C119.947 36.7472 119.981 36.6669 120.051 36.6001C120.122 36.5334 120.207 36.5 120.305 36.5C120.403 36.5 120.486 36.5334 120.556 36.6001C120.627 36.6669 120.663 36.7472 120.663 36.8409C120.663 36.9347 120.627 37.0149 120.556 37.0817C120.486 37.1484 120.403 37.1818 120.305 37.1818ZM123.153 41V37.7273H123.639V38.2386H123.681C123.749 38.0639 123.859 37.9283 124.011 37.8317C124.163 37.7337 124.346 37.6847 124.559 37.6847C124.775 37.6847 124.955 37.7337 125.098 37.8317C125.243 37.9283 125.356 38.0639 125.437 38.2386H125.471C125.555 38.0696 125.68 37.9354 125.848 37.8359C126.016 37.7351 126.217 37.6847 126.451 37.6847C126.744 37.6847 126.983 37.7763 127.169 37.9595C127.355 38.1413 127.448 38.4247 127.448 38.8097V41H126.945V38.8097C126.945 38.5682 126.879 38.3956 126.747 38.2919C126.615 38.1882 126.46 38.1364 126.281 38.1364C126.05 38.1364 125.872 38.206 125.746 38.3452C125.619 38.483 125.556 38.6577 125.556 38.8693V41H125.045V38.7585C125.045 38.5724 124.984 38.4226 124.864 38.3089C124.743 38.1939 124.587 38.1364 124.397 38.1364C124.266 38.1364 124.144 38.1712 124.031 38.2408C123.918 38.3104 123.827 38.407 123.758 38.5305C123.69 38.6527 123.656 38.794 123.656 38.9545V41H123.153ZM130.048 42.2273V37.7273H130.533V38.2472H130.593C130.63 38.1903 130.681 38.1179 130.746 38.0298C130.813 37.9403 130.908 37.8608 131.032 37.7912C131.157 37.7202 131.326 37.6847 131.539 37.6847C131.815 37.6847 132.058 37.7536 132.268 37.8913C132.478 38.0291 132.642 38.2244 132.76 38.4773C132.878 38.7301 132.937 39.0284 132.937 39.3722C132.937 39.7188 132.878 40.0192 132.76 40.2734C132.642 40.5263 132.479 40.7223 132.27 40.8615C132.061 40.9993 131.82 41.0682 131.548 41.0682C131.337 41.0682 131.169 41.0334 131.043 40.9638C130.916 40.8928 130.819 40.8125 130.751 40.723C130.683 40.6321 130.63 40.5568 130.593 40.4972H130.55V42.2273H130.048ZM130.542 39.3636C130.542 39.6108 130.578 39.8288 130.651 40.0178C130.723 40.2053 130.829 40.3523 130.968 40.4588C131.107 40.5639 131.278 40.6165 131.479 40.6165C131.69 40.6165 131.865 40.5611 132.006 40.4503C132.148 40.3381 132.254 40.1875 132.325 39.9986C132.398 39.8082 132.434 39.5966 132.434 39.3636C132.434 39.1335 132.398 38.9261 132.327 38.7415C132.258 38.5554 132.152 38.4084 132.01 38.3004C131.869 38.1911 131.692 38.1364 131.479 38.1364C131.275 38.1364 131.103 38.1882 130.964 38.2919C130.825 38.3942 130.719 38.5376 130.648 38.7223C130.577 38.9055 130.542 39.1193 130.542 39.3636ZM135.887 36.6364V41H135.384V36.6364H135.887ZM139.86 41.0682C139.544 41.0682 139.272 40.9986 139.044 40.8594C138.816 40.7188 138.641 40.5227 138.517 40.2713C138.395 40.0185 138.334 39.7244 138.334 39.3892C138.334 39.054 138.395 38.7585 138.517 38.5028C138.641 38.2457 138.813 38.0455 139.033 37.902C139.255 37.7571 139.513 37.6847 139.809 37.6847C139.979 37.6847 140.147 37.7131 140.314 37.7699C140.48 37.8267 140.631 37.919 140.767 38.0469C140.904 38.1733 141.013 38.3409 141.093 38.5497C141.174 38.7585 141.215 39.0156 141.215 39.321V39.5341H138.692V39.0994H140.704C140.704 38.9148 140.667 38.75 140.593 38.6051C140.52 38.4602 140.417 38.3459 140.282 38.2621C140.148 38.1783 139.99 38.1364 139.809 38.1364C139.608 38.1364 139.435 38.1861 139.289 38.2855C139.144 38.3835 139.032 38.5114 138.954 38.669C138.876 38.8267 138.837 38.9957 138.837 39.1761V39.4659C138.837 39.7131 138.88 39.9226 138.965 40.0945C139.052 40.2649 139.172 40.3949 139.325 40.4844C139.478 40.5724 139.657 40.6165 139.86 40.6165C139.992 40.6165 140.111 40.598 140.218 40.5611C140.326 40.5227 140.419 40.4659 140.497 40.3906C140.575 40.3139 140.635 40.2187 140.678 40.1051L141.164 40.2415C141.113 40.4062 141.027 40.5511 140.906 40.6761C140.785 40.7997 140.636 40.8963 140.459 40.9659C140.281 41.0341 140.081 41.0682 139.86 41.0682ZM144.026 41.0341C143.921 41.0341 143.831 40.9964 143.756 40.9212C143.68 40.8459 143.643 40.7557 143.643 40.6506C143.643 40.5455 143.68 40.4553 143.756 40.38C143.831 40.3047 143.921 40.267 144.026 40.267C144.131 40.267 144.222 40.3047 144.297 40.38C144.372 40.4553 144.41 40.5455 144.41 40.6506C144.41 40.7202 144.392 40.7841 144.357 40.8423C144.322 40.9006 144.276 40.9474 144.218 40.983C144.161 41.017 144.097 41.0341 144.026 41.0341Z" fill="white"/>
</svg>
