<svg width="147" height="121" viewBox="0 0 147 121" fill="none" xmlns="http://www.w3.org/2000/svg">
<rect x="40.75" y="0.125" width="63" height="63" rx="18" fill="#4D7C0F" fill-opacity="0.85098"/>
<path d="M66.25 16.625V22.625M78.25 16.625V22.625M85.75 34.625V22.625C85.75 21.8294 85.4339 21.0663 84.8713 20.5037C84.3087 19.9411 83.5456 19.625 82.75 19.625H61.75C60.9544 19.625 60.1913 19.9411 59.6287 20.5037C59.0661 21.0663 58.75 21.8294 58.75 22.625V43.625C58.75 44.4206 59.0661 45.1837 59.6287 45.7463C60.1913 46.3089 60.9544 46.625 61.75 46.625H73.75M58.75 28.625H85.75M78.25 43.625L81.25 46.625L87.25 40.625" stroke="#84CC16" stroke-width="3" stroke-linecap="round" stroke-linejoin="round"/>
<path d="M29.019 87.1094H23.4196C23.3173 86.3849 23.1085 85.7415 22.7931 85.179C22.4778 84.608 22.073 84.1222 21.5787 83.7216C21.0843 83.321 20.5133 83.0142 19.8656 82.8011C19.2264 82.5881 18.5318 82.4815 17.7818 82.4815C16.4267 82.4815 15.2463 82.8182 14.2406 83.4915C13.2349 84.1562 12.4551 85.1278 11.9011 86.4062C11.3471 87.6761 11.0701 89.2187 11.0701 91.0341C11.0701 92.9006 11.3471 94.4687 11.9011 95.7386C12.4636 97.0085 13.2477 97.9673 14.2534 98.6151C15.2591 99.2628 16.4224 99.5866 17.7434 99.5866C18.4849 99.5866 19.171 99.4886 19.8017 99.2926C20.4409 99.0966 21.0076 98.8111 21.502 98.4361C21.9963 98.0526 22.4054 97.5881 22.7292 97.0426C23.0616 96.4972 23.2917 95.875 23.4196 95.1761L29.019 95.2017C28.8741 96.4034 28.5119 97.5625 27.9324 98.679C27.3613 99.7869 26.59 100.78 25.6184 101.658C24.6554 102.527 23.5048 103.217 22.1667 103.729C20.8372 104.232 19.3329 104.483 17.6539 104.483C15.3187 104.483 13.2306 103.955 11.3897 102.898C9.55735 101.841 8.10849 100.311 7.04315 98.3082C5.98633 96.3054 5.45792 93.8807 5.45792 91.0341C5.45792 88.179 5.99485 85.75 7.06871 83.7472C8.14258 81.7443 9.59996 80.2187 11.4409 79.1705C13.2818 78.1136 15.3528 77.5852 17.6539 77.5852C19.171 77.5852 20.5772 77.7983 21.8727 78.2244C23.1767 78.6506 24.3315 79.2727 25.3372 80.0909C26.3429 80.9006 27.161 81.8935 27.7917 83.0696C28.4309 84.2457 28.84 85.5923 29.019 87.1094ZM38.3322 92.7727V104.125H32.8862V77.9432H38.1788V87.9531H38.4089C38.8521 86.794 39.568 85.8864 40.5566 85.2301C41.5453 84.5653 42.7853 84.233 44.2768 84.233C45.6404 84.233 46.8294 84.5312 47.8436 85.1278C48.8663 85.7159 49.6589 86.5639 50.2214 87.6719C50.7924 88.7713 51.0737 90.0881 51.0652 91.6222V104.125H45.6191V92.5938C45.6277 91.3835 45.3208 90.4418 44.6987 89.7685C44.0851 89.0952 43.2243 88.7585 42.1163 88.7585C41.3748 88.7585 40.7186 88.9162 40.1476 89.2315C39.5851 89.5469 39.1419 90.0071 38.818 90.6122C38.5027 91.2088 38.3407 91.929 38.3322 92.7727ZM64.2999 104.509C62.28 104.509 60.5414 104.099 59.084 103.281C57.6351 102.455 56.5186 101.287 55.7346 99.7784C54.9505 98.2614 54.5584 96.4673 54.5584 94.3963C54.5584 92.3764 54.9505 90.6037 55.7346 89.0781C56.5186 87.5526 57.6223 86.3636 59.0456 85.5114C60.4775 84.6591 62.1564 84.233 64.0826 84.233C65.378 84.233 66.584 84.4418 67.7005 84.8594C68.8255 85.2685 69.8056 85.8864 70.6408 86.7131C71.4846 87.5398 72.1408 88.5795 72.6096 89.8324C73.0783 91.0767 73.3127 92.5341 73.3127 94.2045V95.7003H56.7317V92.3253H68.1863C68.1863 91.5412 68.0158 90.8466 67.6749 90.2415C67.334 89.6364 66.861 89.1634 66.2559 88.8224C65.6593 88.473 64.9647 88.2983 64.1721 88.2983C63.3453 88.2983 62.6124 88.4901 61.9732 88.8736C61.3425 89.2486 60.8482 89.7557 60.4902 90.3949C60.1323 91.0256 59.949 91.7287 59.9405 92.5043V95.7131C59.9405 96.6847 60.1195 97.5241 60.4775 98.2315C60.8439 98.9389 61.3596 99.4844 62.0243 99.8679C62.6891 100.251 63.4775 100.443 64.3894 100.443C64.9945 100.443 65.5485 100.358 66.0513 100.188C66.5542 100.017 66.9846 99.7614 67.3425 99.4205C67.7005 99.0795 67.9732 98.6619 68.1607 98.1676L73.1976 98.5C72.9419 99.7102 72.4178 100.767 71.6252 101.67C70.8411 102.565 69.8269 103.264 68.5826 103.767C67.3468 104.261 65.9192 104.509 64.2999 104.509ZM85.7388 104.509C83.7275 104.509 81.9973 104.082 80.5485 103.23C79.1081 102.369 78.0002 101.176 77.2246 99.6506C76.4576 98.125 76.074 96.3693 76.074 94.3835C76.074 92.3722 76.4618 90.608 77.2374 89.0909C78.0215 87.5653 79.1337 86.3764 80.574 85.5241C82.0144 84.6634 83.7275 84.233 85.7132 84.233C87.4263 84.233 88.9263 84.544 90.2132 85.1662C91.5002 85.7884 92.5186 86.6619 93.2686 87.7869C94.0186 88.9119 94.432 90.233 94.5087 91.75H89.3695C89.2246 90.7699 88.8411 89.9815 88.2189 89.3849C87.6053 88.7798 86.7999 88.4773 85.8027 88.4773C84.959 88.4773 84.2218 88.7074 83.5911 89.1676C82.9689 89.6193 82.4831 90.2798 82.1337 91.1491C81.7843 92.0185 81.6096 93.071 81.6096 94.3068C81.6096 95.5597 81.78 96.625 82.1209 97.5028C82.4703 98.3807 82.9604 99.0497 83.5911 99.5099C84.2218 99.9702 84.959 100.2 85.8027 100.2C86.4249 100.2 86.9831 100.072 87.4775 99.8168C87.9803 99.5611 88.3936 99.1903 88.7175 98.7045C89.0499 98.2102 89.2672 97.6179 89.3695 96.9276H94.5087C94.4235 98.4276 94.0144 99.7486 93.2814 100.891C92.557 102.024 91.5556 102.911 90.2772 103.55C88.9988 104.189 87.486 104.509 85.7388 104.509ZM102.93 98.4744L102.943 91.9418H103.736L110.025 84.4886H116.277L107.827 94.358H106.535L102.93 98.4744ZM97.9956 104.125V77.9432H103.442V104.125H97.9956ZM110.268 104.125L104.49 95.5724L108.121 91.7244L116.648 104.125H110.268ZM124.586 77.9432V104.125H119.051V77.9432H124.586ZM139.483 84.4886V88.5795H127.658V84.4886H139.483ZM130.343 79.7841H135.789V98.0909C135.789 98.5937 135.865 98.9858 136.019 99.267C136.172 99.5398 136.385 99.7315 136.658 99.8423C136.939 99.9531 137.263 100.009 137.629 100.009C137.885 100.009 138.141 99.9872 138.396 99.9446C138.652 99.8935 138.848 99.8551 138.985 99.8295L139.841 103.882C139.568 103.967 139.185 104.065 138.691 104.176C138.196 104.295 137.595 104.368 136.888 104.393C135.575 104.445 134.425 104.27 133.436 103.869C132.456 103.469 131.693 102.847 131.148 102.003C130.602 101.159 130.334 100.094 130.343 98.8068V79.7841Z" fill="white"/>
<path d="M1.40365 112.08H2.34967L4.57411 117.513H4.65081L6.87524 112.08H7.82127V118.625H7.07979V113.652H7.01587L4.97041 118.625H4.2545L2.20905 113.652H2.14513V118.625H1.40365V112.08ZM13.2728 118.74C12.9617 118.74 12.6794 118.681 12.4259 118.564C12.1723 118.445 11.971 118.273 11.8218 118.05C11.6727 117.824 11.5981 117.551 11.5981 117.232C11.5981 116.95 11.6535 116.722 11.7643 116.548C11.8751 116.371 12.0232 116.232 12.2085 116.132C12.3939 116.032 12.5985 115.957 12.8222 115.908C13.048 115.857 13.2749 115.817 13.5029 115.787C13.8012 115.749 14.0431 115.72 14.2284 115.701C14.4159 115.679 14.5523 115.644 14.6375 115.595C14.7249 115.546 14.7686 115.461 14.7686 115.339V115.314C14.7686 114.999 14.6823 114.754 14.5097 114.579C14.3392 114.404 14.0803 114.317 13.733 114.317C13.373 114.317 13.0906 114.396 12.8861 114.553C12.6816 114.711 12.5377 114.879 12.4546 115.058L11.7387 114.803C11.8666 114.504 12.037 114.272 12.2501 114.106C12.4653 113.937 12.6997 113.82 12.9532 113.754C13.2089 113.686 13.4603 113.652 13.7075 113.652C13.8651 113.652 14.0463 113.671 14.2508 113.71C14.4575 113.746 14.6567 113.821 14.8485 113.936C15.0423 114.051 15.2032 114.225 15.3311 114.457C15.4589 114.69 15.5228 115.001 15.5228 115.391V118.625H14.7686V117.96H14.7302C14.6791 118.067 14.5938 118.181 14.4745 118.302C14.3552 118.424 14.1965 118.527 13.9983 118.612C13.8002 118.697 13.5583 118.74 13.2728 118.74ZM13.3879 118.062C13.6862 118.062 13.9376 118.004 14.1421 117.887C14.3488 117.77 14.5044 117.618 14.6088 117.433C14.7153 117.248 14.7686 117.053 14.7686 116.848V116.158C14.7366 116.196 14.6663 116.231 14.5576 116.263C14.4511 116.293 14.3275 116.32 14.1869 116.343C14.0484 116.364 13.9131 116.384 13.781 116.401C13.651 116.415 13.5455 116.428 13.4646 116.439C13.2686 116.464 13.0853 116.506 12.9149 116.564C12.7465 116.619 12.6102 116.703 12.5058 116.816C12.4035 116.927 12.3524 117.078 12.3524 117.27C12.3524 117.532 12.4493 117.73 12.6432 117.864C12.8392 117.996 13.0874 118.062 13.3879 118.062ZM20.1226 116.835L20.1098 115.902H20.2633L22.411 113.716H23.3442L21.0559 116.03H20.9919L20.1226 116.835ZM19.4195 118.625V112.08H20.1738V118.625H19.4195ZM22.5388 118.625L20.6212 116.196L21.1581 115.672L23.4976 118.625H22.5388ZM28.6911 118.727C28.2181 118.727 27.8101 118.623 27.467 118.414C27.1261 118.203 26.863 117.909 26.6776 117.532C26.4944 117.153 26.4027 116.712 26.4027 116.209C26.4027 115.706 26.4944 115.263 26.6776 114.879C26.863 114.494 27.1208 114.193 27.451 113.978C27.7834 113.761 28.1712 113.652 28.6144 113.652C28.8701 113.652 29.1226 113.695 29.3719 113.78C29.6211 113.865 29.8481 114.004 30.0526 114.195C30.2572 114.385 30.4202 114.636 30.5416 114.95C30.663 115.263 30.7238 115.648 30.7238 116.107V116.426H26.9397V115.774H29.9567C29.9567 115.497 29.9013 115.25 29.7905 115.033C29.6819 114.815 29.5263 114.644 29.3239 114.518C29.1236 114.392 28.8871 114.33 28.6144 114.33C28.314 114.33 28.054 114.404 27.8346 114.553C27.6172 114.7 27.45 114.892 27.3328 115.129C27.2156 115.365 27.157 115.619 27.157 115.889V116.324C27.157 116.695 27.2209 117.009 27.3488 117.267C27.4787 117.522 27.6588 117.717 27.8889 117.852C28.119 117.984 28.3864 118.05 28.6911 118.05C28.8893 118.05 29.0682 118.022 29.228 117.967C29.39 117.909 29.5295 117.824 29.6467 117.711C29.7639 117.596 29.8545 117.453 29.9184 117.283L30.6471 117.487C30.5704 117.734 30.4415 117.952 30.2603 118.139C30.0792 118.325 29.8555 118.469 29.5892 118.574C29.3228 118.676 29.0235 118.727 28.6911 118.727ZM39.9282 120.466C39.8003 120.466 39.6864 120.455 39.5862 120.434C39.4861 120.415 39.4168 120.396 39.3785 120.376L39.5702 119.712C39.7535 119.759 39.9154 119.776 40.056 119.763C40.1967 119.75 40.3213 119.687 40.43 119.574C40.5408 119.463 40.642 119.283 40.7336 119.034L40.8742 118.651L39.0589 113.716H39.8771L41.2322 117.628H41.2833L42.6384 113.716H43.4566L41.3728 119.341C41.279 119.594 41.1629 119.804 41.0244 119.971C40.8859 120.139 40.7251 120.263 40.5418 120.344C40.3607 120.425 40.1562 120.466 39.9282 120.466ZM48.7907 118.727C48.3475 118.727 47.9587 118.622 47.6241 118.411C47.2918 118.2 47.0318 117.905 46.8443 117.526C46.6589 117.146 46.5663 116.703 46.5663 116.196C46.5663 115.685 46.6589 115.238 46.8443 114.857C47.0318 114.475 47.2918 114.179 47.6241 113.968C47.9587 113.757 48.3475 113.652 48.7907 113.652C49.2339 113.652 49.6217 113.757 49.954 113.968C50.2886 114.179 50.5485 114.475 50.7339 114.857C50.9214 115.238 51.0151 115.685 51.0151 116.196C51.0151 116.703 50.9214 117.146 50.7339 117.526C50.5485 117.905 50.2886 118.2 49.954 118.411C49.6217 118.622 49.2339 118.727 48.7907 118.727ZM48.7907 118.05C49.1273 118.05 49.4043 117.963 49.6217 117.791C49.839 117.618 49.9999 117.391 50.1043 117.11C50.2087 116.829 50.2609 116.524 50.2609 116.196C50.2609 115.868 50.2087 115.562 50.1043 115.279C49.9999 114.995 49.839 114.766 49.6217 114.592C49.4043 114.417 49.1273 114.33 48.7907 114.33C48.454 114.33 48.1771 114.417 47.9597 114.592C47.7424 114.766 47.5815 114.995 47.4771 115.279C47.3727 115.562 47.3205 115.868 47.3205 116.196C47.3205 116.524 47.3727 116.829 47.4771 117.11C47.5815 117.391 47.7424 117.618 47.9597 117.791C48.1771 117.963 48.454 118.05 48.7907 118.05ZM57.7802 116.618V113.716H58.5345V118.625H57.7802V117.794H57.7291C57.6141 118.043 57.4351 118.255 57.1922 118.43C56.9493 118.603 56.6425 118.689 56.2717 118.689C55.9649 118.689 55.6922 118.622 55.4535 118.488C55.2149 118.351 55.0274 118.147 54.891 117.874C54.7547 117.599 54.6865 117.253 54.6865 116.835V113.716H55.4408V116.784C55.4408 117.142 55.5409 117.428 55.7412 117.641C55.9436 117.854 56.2014 117.96 56.5146 117.96C56.7021 117.96 56.8928 117.912 57.0867 117.816C57.2827 117.721 57.4468 117.574 57.5789 117.375C57.7131 117.177 57.7802 116.925 57.7802 116.618ZM62.436 118.625V113.716H63.1647V114.457H63.2158C63.3053 114.214 63.4672 114.017 63.7016 113.866C63.936 113.715 64.2002 113.639 64.4942 113.639C64.5496 113.639 64.6189 113.64 64.702 113.642C64.7851 113.645 64.8479 113.648 64.8905 113.652V114.419C64.865 114.413 64.8064 114.403 64.7148 114.39C64.6253 114.375 64.5304 114.368 64.4303 114.368C64.1917 114.368 63.9786 114.418 63.7911 114.518C63.6057 114.616 63.4587 114.752 63.3501 114.927C63.2435 115.1 63.1902 115.297 63.1902 115.518V118.625H62.436ZM75.2096 118.727C74.8005 118.727 74.4393 118.624 74.1261 118.417C73.8129 118.208 73.5679 117.914 73.391 117.535C73.2142 117.154 73.1258 116.703 73.1258 116.183C73.1258 115.668 73.2142 115.22 73.391 114.841C73.5679 114.462 73.814 114.169 74.1293 113.962C74.4446 113.755 74.809 113.652 75.2223 113.652C75.5419 113.652 75.7944 113.705 75.9798 113.812C76.1673 113.916 76.3101 114.036 76.4081 114.17C76.5082 114.302 76.586 114.411 76.6414 114.496H76.7053V112.08H77.4596V118.625H76.7309V117.871H76.6414C76.586 117.96 76.5071 118.073 76.4049 118.21C76.3026 118.344 76.1566 118.464 75.967 118.571C75.7774 118.675 75.5249 118.727 75.2096 118.727ZM75.3118 118.05C75.6144 118.05 75.8701 117.971 76.0789 117.813C76.2877 117.653 76.4464 117.433 76.5551 117.152C76.6638 116.868 76.7181 116.541 76.7181 116.17C76.7181 115.804 76.6648 115.483 76.5583 115.208C76.4517 114.931 76.2941 114.716 76.0853 114.563C75.8765 114.407 75.6187 114.33 75.3118 114.33C74.9922 114.33 74.7259 114.412 74.5128 114.576C74.3019 114.738 74.1432 114.958 74.0366 115.237C73.9322 115.514 73.88 115.825 73.88 116.17C73.88 116.52 73.9333 116.837 74.0398 117.123C74.1485 117.406 74.3083 117.632 74.5192 117.8C74.7323 117.967 74.9965 118.05 75.3118 118.05ZM82.9103 118.74C82.5992 118.74 82.3169 118.681 82.0634 118.564C81.8098 118.445 81.6085 118.273 81.4593 118.05C81.3102 117.824 81.2356 117.551 81.2356 117.232C81.2356 116.95 81.291 116.722 81.4018 116.548C81.5126 116.371 81.6607 116.232 81.846 116.132C82.0314 116.032 82.236 115.957 82.4597 115.908C82.6855 115.857 82.9124 115.817 83.1404 115.787C83.4387 115.749 83.6806 115.72 83.8659 115.701C84.0534 115.679 84.1898 115.644 84.275 115.595C84.3624 115.546 84.4061 115.461 84.4061 115.339V115.314C84.4061 114.999 84.3198 114.754 84.1472 114.579C83.9767 114.404 83.7178 114.317 83.3705 114.317C83.0105 114.317 82.7281 114.396 82.5236 114.553C82.3191 114.711 82.1752 114.879 82.0921 115.058L81.3762 114.803C81.5041 114.504 81.6745 114.272 81.8876 114.106C82.1028 113.937 82.3372 113.82 82.5907 113.754C82.8464 113.686 83.0978 113.652 83.345 113.652C83.5026 113.652 83.6838 113.671 83.8883 113.71C84.095 113.746 84.2942 113.821 84.486 113.936C84.6798 114.051 84.8407 114.225 84.9686 114.457C85.0964 114.69 85.1603 115.001 85.1603 115.391V118.625H84.4061V117.96H84.3677C84.3166 118.067 84.2313 118.181 84.112 118.302C83.9927 118.424 83.834 118.527 83.6358 118.612C83.4377 118.697 83.1958 118.74 82.9103 118.74ZM83.0254 118.062C83.3237 118.062 83.5751 118.004 83.7796 117.887C83.9863 117.77 84.1419 117.618 84.2463 117.433C84.3528 117.248 84.4061 117.053 84.4061 116.848V116.158C84.3741 116.196 84.3038 116.231 84.1951 116.263C84.0886 116.293 83.965 116.32 83.8244 116.343C83.6859 116.364 83.5506 116.384 83.4185 116.401C83.2885 116.415 83.183 116.428 83.1021 116.439C82.9061 116.464 82.7228 116.506 82.5524 116.564C82.384 116.619 82.2477 116.703 82.1433 116.816C82.041 116.927 81.9899 117.078 81.9899 117.27C81.9899 117.532 82.0868 117.73 82.2807 117.864C82.4767 117.996 82.7249 118.062 83.0254 118.062ZM89.367 120.466C89.2392 120.466 89.1252 120.455 89.025 120.434C88.9249 120.415 88.8557 120.396 88.8173 120.376L89.0091 119.712C89.1923 119.759 89.3542 119.776 89.4949 119.763C89.6355 119.75 89.7601 119.687 89.8688 119.574C89.9796 119.463 90.0808 119.283 90.1724 119.034L90.313 118.651L88.4977 113.716H89.3159L90.671 117.628H90.7221L92.0772 113.716H92.8954L90.8116 119.341C90.7179 119.594 90.6017 119.804 90.4633 119.971C90.3248 120.139 90.1639 120.263 89.9807 120.344C89.7995 120.425 89.595 120.466 89.367 120.466ZM104.94 114.815L104.262 115.007C104.219 114.894 104.156 114.784 104.073 114.678C103.992 114.569 103.882 114.48 103.741 114.409C103.6 114.339 103.42 114.304 103.201 114.304C102.9 114.304 102.65 114.373 102.45 114.512C102.252 114.648 102.153 114.822 102.153 115.033C102.153 115.22 102.221 115.368 102.357 115.477C102.493 115.586 102.707 115.676 102.996 115.749L103.725 115.928C104.164 116.034 104.491 116.197 104.706 116.417C104.921 116.634 105.029 116.914 105.029 117.257C105.029 117.538 104.948 117.79 104.786 118.011C104.626 118.233 104.403 118.408 104.115 118.536C103.827 118.663 103.493 118.727 103.111 118.727C102.611 118.727 102.196 118.619 101.868 118.401C101.54 118.184 101.332 117.866 101.245 117.449L101.961 117.27C102.029 117.534 102.158 117.732 102.348 117.864C102.539 117.996 102.79 118.062 103.099 118.062C103.45 118.062 103.729 117.988 103.936 117.839C104.145 117.687 104.249 117.506 104.249 117.295C104.249 117.125 104.19 116.982 104.07 116.867C103.951 116.75 103.768 116.663 103.52 116.605L102.702 116.413C102.253 116.307 101.922 116.142 101.712 115.918C101.503 115.692 101.398 115.41 101.398 115.071C101.398 114.794 101.476 114.549 101.632 114.336C101.789 114.123 102.003 113.956 102.274 113.834C102.547 113.713 102.856 113.652 103.201 113.652C103.687 113.652 104.068 113.759 104.345 113.972C104.624 114.185 104.822 114.466 104.94 114.815ZM108.684 118.625V113.716H109.439V118.625H108.684ZM109.068 112.898C108.921 112.898 108.794 112.848 108.688 112.748C108.583 112.647 108.531 112.527 108.531 112.386C108.531 112.246 108.583 112.125 108.688 112.025C108.794 111.925 108.921 111.875 109.068 111.875C109.215 111.875 109.341 111.925 109.445 112.025C109.552 112.125 109.605 112.246 109.605 112.386C109.605 112.527 109.552 112.647 109.445 112.748C109.341 112.848 109.215 112.898 109.068 112.898ZM113.34 118.625V113.716H114.069V114.483H114.133C114.235 114.221 114.4 114.017 114.628 113.873C114.856 113.725 115.13 113.652 115.45 113.652C115.773 113.652 116.043 113.725 116.258 113.873C116.475 114.017 116.645 114.221 116.766 114.483H116.817C116.943 114.229 117.132 114.028 117.383 113.879C117.635 113.728 117.936 113.652 118.288 113.652C118.726 113.652 119.086 113.789 119.365 114.064C119.644 114.337 119.783 114.762 119.783 115.339V118.625H119.029V115.339C119.029 114.977 118.93 114.718 118.732 114.563C118.534 114.407 118.3 114.33 118.032 114.33C117.687 114.33 117.419 114.434 117.23 114.643C117.04 114.849 116.945 115.112 116.945 115.429V118.625H116.178V115.263C116.178 114.984 116.088 114.759 115.907 114.588C115.725 114.416 115.492 114.33 115.207 114.33C115.011 114.33 114.827 114.382 114.657 114.486C114.489 114.591 114.352 114.735 114.248 114.921C114.146 115.104 114.094 115.316 114.094 115.557V118.625H113.34ZM123.682 120.466V113.716H124.411V114.496H124.501C124.556 114.411 124.633 114.302 124.731 114.17C124.831 114.036 124.974 113.916 125.159 113.812C125.346 113.705 125.6 113.652 125.92 113.652C126.333 113.652 126.697 113.755 127.013 113.962C127.328 114.169 127.574 114.462 127.751 114.841C127.928 115.22 128.016 115.668 128.016 116.183C128.016 116.703 127.928 117.154 127.751 117.535C127.574 117.914 127.329 118.208 127.016 118.417C126.703 118.624 126.341 118.727 125.932 118.727C125.617 118.727 125.365 118.675 125.175 118.571C124.985 118.464 124.839 118.344 124.737 118.21C124.635 118.073 124.556 117.96 124.501 117.871H124.437V120.466H123.682ZM124.424 116.17C124.424 116.541 124.478 116.868 124.587 117.152C124.696 117.433 124.854 117.653 125.063 117.813C125.272 117.971 125.528 118.05 125.83 118.05C126.145 118.05 126.409 117.967 126.62 117.8C126.833 117.632 126.992 117.406 127.099 117.123C127.208 116.837 127.262 116.52 127.262 116.17C127.262 115.825 127.209 115.514 127.102 115.237C126.998 114.958 126.839 114.738 126.626 114.576C126.415 114.412 126.15 114.33 125.83 114.33C125.523 114.33 125.265 114.407 125.057 114.563C124.848 114.716 124.69 114.931 124.584 115.208C124.477 115.483 124.424 115.804 124.424 116.17ZM132.441 112.08V118.625H131.687V112.08H132.441ZM138.401 118.727C137.928 118.727 137.52 118.623 137.177 118.414C136.836 118.203 136.573 117.909 136.387 117.532C136.204 117.153 136.112 116.712 136.112 116.209C136.112 115.706 136.204 115.263 136.387 114.879C136.573 114.494 136.83 114.193 137.161 113.978C137.493 113.761 137.881 113.652 138.324 113.652C138.58 113.652 138.832 113.695 139.082 113.78C139.331 113.865 139.558 114.004 139.762 114.195C139.967 114.385 140.13 114.636 140.251 114.95C140.373 115.263 140.433 115.648 140.433 116.107V116.426H136.649V115.774H139.666C139.666 115.497 139.611 115.25 139.5 115.033C139.392 114.815 139.236 114.644 139.034 114.518C138.833 114.392 138.597 114.33 138.324 114.33C138.024 114.33 137.764 114.404 137.544 114.553C137.327 114.7 137.16 114.892 137.042 115.129C136.925 115.365 136.867 115.619 136.867 115.889V116.324C136.867 116.695 136.931 117.009 137.058 117.267C137.188 117.522 137.368 117.717 137.599 117.852C137.829 117.984 138.096 118.05 138.401 118.05C138.599 118.05 138.778 118.022 138.938 117.967C139.1 117.909 139.239 117.824 139.356 117.711C139.474 117.596 139.564 117.453 139.628 117.283L140.357 117.487C140.28 117.734 140.151 117.952 139.97 118.139C139.789 118.325 139.565 118.469 139.299 118.574C139.033 118.676 138.733 118.727 138.401 118.727ZM144.651 118.676C144.493 118.676 144.358 118.62 144.245 118.507C144.132 118.394 144.075 118.259 144.075 118.101C144.075 117.943 144.132 117.808 144.245 117.695C144.358 117.582 144.493 117.526 144.651 117.526C144.808 117.526 144.943 117.582 145.056 117.695C145.169 117.808 145.226 117.943 145.226 118.101C145.226 118.205 145.199 118.301 145.146 118.388C145.095 118.476 145.026 118.546 144.938 118.599C144.853 118.651 144.757 118.676 144.651 118.676Z" fill="white"/>
</svg>
