<svg width="97" height="81" viewBox="0 0 97 81" fill="none" xmlns="http://www.w3.org/2000/svg">
<rect x="22" width="42" height="42" rx="12" fill="#4D7C0F" fill-opacity="0.85098"/>
<path d="M39 11V15M47 11V15M52 23V15C52 14.4696 51.7893 13.9609 51.4142 13.5858C51.0391 13.2107 50.5304 13 50 13H36C35.4696 13 34.9609 13.2107 34.5858 13.5858C34.2107 13.9609 34 14.4696 34 15V29C34 29.5304 34.2107 30.0391 34.5858 30.4142C34.9609 30.7893 35.4696 31 36 31H44M34 19H52M47 29L49 31L53 27" stroke="#84CC16" stroke-width="2" stroke-linecap="round" stroke-linejoin="round"/>
<path d="M16.9176 57.6562H13.1847C13.1165 57.1733 12.9773 56.7443 12.767 56.3693C12.5568 55.9886 12.2869 55.6648 11.9574 55.3977C11.6278 55.1307 11.2472 54.9261 10.8153 54.7841C10.3892 54.642 9.92614 54.571 9.42614 54.571C8.52273 54.571 7.7358 54.7955 7.06534 55.2443C6.39489 55.6875 5.875 56.3352 5.50568 57.1875C5.13636 58.0341 4.9517 59.0625 4.9517 60.2727C4.9517 61.517 5.13636 62.5625 5.50568 63.4091C5.88068 64.2557 6.40341 64.8949 7.07386 65.3267C7.74432 65.7585 8.51989 65.9744 9.40057 65.9744C9.89489 65.9744 10.3523 65.9091 10.7727 65.7784C11.1989 65.6477 11.5767 65.4574 11.9062 65.2074C12.2358 64.9517 12.5085 64.642 12.7244 64.2784C12.946 63.9148 13.0994 63.5 13.1847 63.0341L16.9176 63.0511C16.821 63.8523 16.5795 64.625 16.1932 65.3693C15.8125 66.108 15.2983 66.7699 14.6506 67.3551C14.0085 67.9347 13.2415 68.3949 12.3494 68.7358C11.4631 69.071 10.4602 69.2386 9.34091 69.2386C7.78409 69.2386 6.39205 68.8864 5.16477 68.1818C3.94318 67.4773 2.97727 66.4574 2.26705 65.1222C1.5625 63.7869 1.21023 62.1705 1.21023 60.2727C1.21023 58.3693 1.56818 56.75 2.28409 55.4148C3 54.0795 3.97159 53.0625 5.19886 52.3636C6.42614 51.6591 7.80682 51.3068 9.34091 51.3068C10.3523 51.3068 11.2898 51.4489 12.1534 51.733C13.0227 52.017 13.7926 52.4318 14.4631 52.9773C15.1335 53.517 15.679 54.179 16.0994 54.9631C16.5256 55.7472 16.7983 56.6449 16.9176 57.6562ZM23.1264 61.4318V69H19.4957V51.5455H23.0241V58.2188H23.1776C23.473 57.446 23.9503 56.8409 24.6094 56.4034C25.2685 55.9602 26.0952 55.7386 27.0895 55.7386C27.9986 55.7386 28.7912 55.9375 29.4673 56.3352C30.1491 56.7273 30.6776 57.2926 31.0526 58.0312C31.4332 58.7642 31.6207 59.642 31.6151 60.6648V69H27.9844V61.3125C27.9901 60.5057 27.7855 59.8778 27.3707 59.429C26.9616 58.9801 26.3878 58.7557 25.6491 58.7557C25.1548 58.7557 24.7173 58.8608 24.3366 59.071C23.9616 59.2812 23.6662 59.5881 23.4503 59.9915C23.2401 60.3892 23.1321 60.8693 23.1264 61.4318ZM40.4382 69.2557C39.0916 69.2557 37.9325 68.983 36.9609 68.4375C35.995 67.8864 35.2507 67.108 34.728 66.1023C34.2053 65.0909 33.9439 63.8949 33.9439 62.5142C33.9439 61.1676 34.2053 59.9858 34.728 58.9688C35.2507 57.9517 35.9865 57.1591 36.9354 56.5909C37.8899 56.0227 39.0092 55.7386 40.2933 55.7386C41.157 55.7386 41.9609 55.8778 42.7053 56.1562C43.4553 56.429 44.1087 56.8409 44.6655 57.392C45.228 57.9432 45.6655 58.6364 45.978 59.4716C46.2905 60.3011 46.4467 61.2727 46.4467 62.3864V63.3835H35.3928V61.1335H43.0291C43.0291 60.6108 42.9155 60.1477 42.6882 59.7443C42.4609 59.3409 42.1456 59.0256 41.7422 58.7983C41.3445 58.5653 40.8814 58.4489 40.353 58.4489C39.8018 58.4489 39.3132 58.5767 38.8871 58.8324C38.4666 59.0824 38.1371 59.4205 37.8984 59.8466C37.6598 60.267 37.5376 60.7358 37.532 61.2528V63.392C37.532 64.0398 37.6513 64.5994 37.8899 65.071C38.1342 65.5426 38.478 65.9062 38.9212 66.1619C39.3643 66.4176 39.8899 66.5455 40.4979 66.5455C40.9013 66.5455 41.2706 66.4886 41.6058 66.375C41.9411 66.2614 42.228 66.0909 42.4666 65.8636C42.7053 65.6364 42.8871 65.358 43.0121 65.0284L46.37 65.25C46.1996 66.0568 45.8501 66.7614 45.3217 67.3636C44.799 67.9602 44.1229 68.4261 43.2933 68.7614C42.4695 69.0909 41.5178 69.2557 40.4382 69.2557ZM54.7308 69.2557C53.3899 69.2557 52.2365 68.9716 51.2706 68.4034C50.3104 67.8295 49.5717 67.0341 49.0547 66.017C48.5433 65 48.2876 63.8295 48.2876 62.5057C48.2876 61.1648 48.5462 59.9886 49.0632 58.9773C49.5859 57.9602 50.3274 57.1676 51.2876 56.5994C52.2479 56.0256 53.3899 55.7386 54.7138 55.7386C55.8558 55.7386 56.8558 55.946 57.7138 56.3608C58.5717 56.7756 59.2507 57.358 59.7507 58.108C60.2507 58.858 60.5263 59.7386 60.5774 60.75H57.1513C57.0547 60.0966 56.799 59.571 56.3842 59.1733C55.9751 58.7699 55.4382 58.5682 54.7734 58.5682C54.2109 58.5682 53.7195 58.7216 53.299 59.0284C52.8842 59.3295 52.5604 59.7699 52.3274 60.3494C52.0945 60.929 51.978 61.6307 51.978 62.4545C51.978 63.2898 52.0916 64 52.3189 64.5852C52.5518 65.1705 52.8786 65.6165 53.299 65.9233C53.7195 66.2301 54.2109 66.3835 54.7734 66.3835C55.1882 66.3835 55.5604 66.2983 55.8899 66.1278C56.2251 65.9574 56.5007 65.7102 56.7166 65.3864C56.9382 65.0568 57.0831 64.6619 57.1513 64.2017H60.5774C60.5206 65.2017 60.2479 66.0824 59.7592 66.8438C59.2763 67.5994 58.6087 68.1903 57.7564 68.6165C56.9041 69.0426 55.8956 69.2557 54.7308 69.2557ZM66.1918 65.233L66.2003 60.8778H66.7287L70.9219 55.9091H75.0895L69.456 62.4886H68.5952L66.1918 65.233ZM62.902 69V51.5455H66.5327V69H62.902ZM71.0838 69L67.2315 63.2983L69.652 60.733L75.3366 69H71.0838ZM80.6293 51.5455V69H76.9389V51.5455H80.6293ZM90.5604 55.9091V58.6364H82.6768V55.9091H90.5604ZM84.4666 52.7727H88.0973V64.9773C88.0973 65.3125 88.1484 65.5739 88.2507 65.7614C88.353 65.9432 88.495 66.071 88.6768 66.1449C88.8643 66.2187 89.0803 66.2557 89.3246 66.2557C89.495 66.2557 89.6655 66.2415 89.8359 66.2131C90.0064 66.179 90.1371 66.1534 90.228 66.1364L90.799 68.8381C90.6172 68.8949 90.3615 68.9602 90.032 69.0341C89.7024 69.1136 89.3018 69.1619 88.8303 69.179C87.9553 69.2131 87.1882 69.0966 86.5291 68.8295C85.8757 68.5625 85.3672 68.1477 85.0036 67.5852C84.6399 67.0227 84.4609 66.3125 84.4666 65.4545V52.7727Z" fill="white"/>
<path d="M0.528409 74.6364H1.15909L2.64205 78.2585H2.69318L4.17614 74.6364H4.80682V79H4.3125V75.6847H4.26989L2.90625 79H2.42898L1.06534 75.6847H1.02273V79H0.528409V74.6364ZM8.44119 79.0767C8.2338 79.0767 8.04559 79.0376 7.87656 78.9595C7.70752 78.88 7.57329 78.7656 7.47386 78.6165C7.37442 78.4659 7.32471 78.2841 7.32471 78.071C7.32471 77.8835 7.36164 77.7315 7.4355 77.6151C7.50937 77.4972 7.60809 77.4048 7.73167 77.3381C7.85525 77.2713 7.99161 77.2216 8.14076 77.1889C8.29133 77.1548 8.44261 77.1278 8.5946 77.108C8.79346 77.0824 8.95468 77.0632 9.07826 77.0504C9.20326 77.0362 9.29417 77.0128 9.35099 76.9801C9.40923 76.9474 9.43835 76.8906 9.43835 76.8097V76.7926C9.43835 76.5824 9.38082 76.419 9.26576 76.3026C9.15212 76.1861 8.97954 76.1278 8.748 76.1278C8.50795 76.1278 8.31974 76.1804 8.18337 76.2855C8.04701 76.3906 7.95113 76.5028 7.89573 76.6222L7.41846 76.4517C7.50369 76.2528 7.61732 76.098 7.75937 75.9872C7.90283 75.875 8.05908 75.7969 8.22812 75.7528C8.39857 75.7074 8.56619 75.6847 8.73096 75.6847C8.83607 75.6847 8.95681 75.6974 9.09317 75.723C9.23096 75.7472 9.36377 75.7976 9.49161 75.8743C9.62087 75.951 9.72812 76.0668 9.81335 76.2216C9.89857 76.3764 9.94119 76.5838 9.94119 76.8438V79H9.43835V78.5568H9.41278C9.37869 78.6278 9.32187 78.7038 9.24232 78.7848C9.16278 78.8658 9.05695 78.9347 8.92485 78.9915C8.79275 79.0483 8.63153 79.0767 8.44119 79.0767ZM8.51789 78.625C8.71675 78.625 8.88437 78.5859 9.02073 78.5078C9.15852 78.4297 9.26221 78.3288 9.33181 78.2053C9.40283 78.0817 9.43835 77.9517 9.43835 77.8153V77.3551C9.41704 77.3807 9.37016 77.4041 9.29772 77.4254C9.2267 77.4453 9.14431 77.4631 9.05056 77.4787C8.95823 77.4929 8.86803 77.5057 8.77996 77.517C8.69332 77.527 8.623 77.5355 8.56903 77.5426C8.43835 77.5597 8.31619 77.5874 8.20255 77.6257C8.09033 77.6626 7.99942 77.7187 7.92982 77.794C7.86164 77.8679 7.82755 77.9687 7.82755 78.0966C7.82755 78.2713 7.89218 78.4034 8.02144 78.4929C8.15212 78.581 8.31761 78.625 8.51789 78.625ZM13.0077 77.8068L12.9992 77.1847H13.1015L14.5333 75.7273H15.1555L13.6299 77.2699H13.5873L13.0077 77.8068ZM12.539 79V74.6364H13.0418V79H12.539ZM14.6185 79L13.3401 77.3807L13.6981 77.0312L15.2577 79H14.6185ZM18.72 79.0682C18.4047 79.0682 18.1327 78.9986 17.904 78.8594C17.6767 78.7188 17.5013 78.5227 17.3777 78.2713C17.2556 78.0185 17.1945 77.7244 17.1945 77.3892C17.1945 77.054 17.2556 76.7585 17.3777 76.5028C17.5013 76.2457 17.6732 76.0455 17.8933 75.902C18.1149 75.7571 18.3735 75.6847 18.6689 75.6847C18.8394 75.6847 19.0077 75.7131 19.1739 75.7699C19.3401 75.8267 19.4913 75.919 19.6277 76.0469C19.7641 76.1733 19.8727 76.3409 19.9537 76.5497C20.0347 76.7585 20.0752 77.0156 20.0752 77.321V77.5341H17.5524V77.0994H19.5638C19.5638 76.9148 19.5269 76.75 19.453 76.6051C19.3806 76.4602 19.2769 76.3459 19.1419 76.2621C19.0084 76.1783 18.8507 76.1364 18.6689 76.1364C18.4686 76.1364 18.2953 76.1861 18.149 76.2855C18.0041 76.3835 17.8926 76.5114 17.8145 76.669C17.7364 76.8267 17.6973 76.9957 17.6973 77.1761V77.4659C17.6973 77.7131 17.7399 77.9226 17.8252 78.0945C17.9118 78.2649 18.0318 78.3949 18.1852 78.4844C18.3386 78.5724 18.5169 78.6165 18.72 78.6165C18.8521 78.6165 18.9715 78.598 19.078 78.5611C19.186 78.5227 19.279 78.4659 19.3571 78.3906C19.4352 78.3139 19.4956 78.2187 19.5382 78.1051L20.024 78.2415C19.9729 78.4062 19.8869 78.5511 19.7662 78.6761C19.6455 78.7997 19.4963 78.8963 19.3188 78.9659C19.1412 79.0341 18.9416 79.0682 18.72 79.0682ZM26.2114 80.2273C26.1262 80.2273 26.0502 80.2202 25.9835 80.206C25.9167 80.1932 25.8705 80.1804 25.845 80.1676L25.9728 79.7244C26.095 79.7557 26.2029 79.767 26.2967 79.7585C26.3904 79.75 26.4735 79.7081 26.546 79.6328C26.6198 79.5589 26.6873 79.4389 26.7484 79.2727L26.8421 79.017L25.6319 75.7273H26.1773L27.0808 78.3352H27.1148L28.0183 75.7273H28.5637L27.1745 79.4773C27.112 79.6463 27.0346 79.7862 26.9423 79.897C26.8499 80.0092 26.7427 80.0923 26.6205 80.1463C26.4998 80.2003 26.3634 80.2273 26.2114 80.2273ZM32.1198 79.0682C31.8243 79.0682 31.5651 78.9979 31.3421 78.8572C31.1205 78.7166 30.9472 78.5199 30.8222 78.267C30.6986 78.0142 30.6368 77.7187 30.6368 77.3807C30.6368 77.0398 30.6986 76.7422 30.8222 76.4879C30.9472 76.2337 31.1205 76.0362 31.3421 75.8956C31.5651 75.755 31.8243 75.6847 32.1198 75.6847C32.4152 75.6847 32.6737 75.755 32.8953 75.8956C33.1184 76.0362 33.2916 76.2337 33.4152 76.4879C33.5402 76.7422 33.6027 77.0398 33.6027 77.3807C33.6027 77.7187 33.5402 78.0142 33.4152 78.267C33.2916 78.5199 33.1184 78.7166 32.8953 78.8572C32.6737 78.9979 32.4152 79.0682 32.1198 79.0682ZM32.1198 78.6165C32.3442 78.6165 32.5289 78.5589 32.6737 78.4439C32.8186 78.3288 32.9259 78.1776 32.9955 77.9901C33.0651 77.8026 33.0999 77.5994 33.0999 77.3807C33.0999 77.1619 33.0651 76.9581 32.9955 76.7692C32.9259 76.5803 32.8186 76.4276 32.6737 76.3111C32.5289 76.1946 32.3442 76.1364 32.1198 76.1364C31.8953 76.1364 31.7107 76.1946 31.5658 76.3111C31.4209 76.4276 31.3137 76.5803 31.2441 76.7692C31.1745 76.9581 31.1397 77.1619 31.1397 77.3807C31.1397 77.5994 31.1745 77.8026 31.2441 77.9901C31.3137 78.1776 31.4209 78.3288 31.5658 78.4439C31.7107 78.5589 31.8953 78.6165 32.1198 78.6165ZM38.1128 77.6619V75.7273H38.6156V79H38.1128V78.446H38.0787C38.002 78.6122 37.8827 78.7536 37.7208 78.87C37.5588 78.9851 37.3543 79.0426 37.1071 79.0426C36.9026 79.0426 36.7208 78.9979 36.5617 78.9084C36.4026 78.8175 36.2776 78.6811 36.1867 78.4993C36.0958 78.3161 36.0503 78.0852 36.0503 77.8068V75.7273H36.5531V77.7727C36.5531 78.0114 36.6199 78.2017 36.7534 78.3438C36.8884 78.4858 37.0602 78.5568 37.2691 78.5568C37.3941 78.5568 37.5212 78.5249 37.6504 78.4609C37.7811 78.397 37.8905 78.299 37.9786 78.1669C38.0681 78.0348 38.1128 77.8665 38.1128 77.6619ZM41.2166 79V75.7273H41.7024V76.2216H41.7365C41.7962 76.0597 41.9041 75.9283 42.0604 75.8274C42.2166 75.7266 42.3928 75.6761 42.5888 75.6761C42.6257 75.6761 42.6719 75.6768 42.7273 75.6783C42.7827 75.6797 42.8246 75.6818 42.853 75.6847V76.196C42.836 76.1918 42.7969 76.1854 42.7358 76.1768C42.6761 76.1669 42.6129 76.1619 42.5462 76.1619C42.3871 76.1619 42.245 76.1953 42.12 76.2621C41.9965 76.3274 41.8985 76.4183 41.826 76.5348C41.755 76.6499 41.7195 76.7812 41.7195 76.929V79H41.2166ZM49.7324 79.0682C49.4596 79.0682 49.2189 78.9993 49.01 78.8615C48.8012 78.7223 48.6379 78.5263 48.52 78.2734C48.4021 78.0192 48.3431 77.7188 48.3431 77.3722C48.3431 77.0284 48.4021 76.7301 48.52 76.4773C48.6379 76.2244 48.802 76.0291 49.0122 75.8913C49.2224 75.7536 49.4653 75.6847 49.7409 75.6847C49.9539 75.6847 50.1223 75.7202 50.2458 75.7912C50.3708 75.8608 50.466 75.9403 50.5314 76.0298C50.5981 76.1179 50.65 76.1903 50.6869 76.2472H50.7295V74.6364H51.2324V79H50.7466V78.4972H50.6869C50.65 78.5568 50.5974 78.6321 50.5292 78.723C50.461 78.8125 50.3637 78.8928 50.2373 78.9638C50.1109 79.0334 49.9426 79.0682 49.7324 79.0682ZM49.8005 78.6165C50.0022 78.6165 50.1727 78.5639 50.3119 78.4588C50.4511 78.3523 50.5569 78.2053 50.6294 78.0178C50.7018 77.8288 50.738 77.6108 50.738 77.3636C50.738 77.1193 50.7025 76.9055 50.6315 76.7223C50.5605 76.5376 50.4554 76.3942 50.3162 76.2919C50.177 76.1882 50.0051 76.1364 49.8005 76.1364C49.5875 76.1364 49.4099 76.1911 49.2679 76.3004C49.1272 76.4084 49.0214 76.5554 48.9504 76.7415C48.8808 76.9261 48.846 77.1335 48.846 77.3636C48.846 77.5966 48.8815 77.8082 48.9525 77.9986C49.025 78.1875 49.1315 78.3381 49.2721 78.4503C49.4142 78.5611 49.5903 78.6165 49.8005 78.6165ZM54.8662 79.0767C54.6588 79.0767 54.4706 79.0376 54.3016 78.9595C54.1325 78.88 53.9983 78.7656 53.8989 78.6165C53.7994 78.4659 53.7497 78.2841 53.7497 78.071C53.7497 77.8835 53.7866 77.7315 53.8605 77.6151C53.9344 77.4972 54.0331 77.4048 54.1567 77.3381C54.2802 77.2713 54.4166 77.2216 54.5658 77.1889C54.7163 77.1548 54.8676 77.1278 55.0196 77.108C55.2185 77.0824 55.3797 77.0632 55.5033 77.0504C55.6283 77.0362 55.7192 77.0128 55.776 76.9801C55.8342 76.9474 55.8633 76.8906 55.8633 76.8097V76.7926C55.8633 76.5824 55.8058 76.419 55.6908 76.3026C55.5771 76.1861 55.4045 76.1278 55.173 76.1278C54.9329 76.1278 54.7447 76.1804 54.6084 76.2855C54.472 76.3906 54.3761 76.5028 54.3207 76.6222L53.8435 76.4517C53.9287 76.2528 54.0423 76.098 54.1844 75.9872C54.3278 75.875 54.4841 75.7969 54.6531 75.7528C54.8236 75.7074 54.9912 75.6847 55.156 75.6847C55.2611 75.6847 55.3818 75.6974 55.5182 75.723C55.656 75.7472 55.7888 75.7976 55.9166 75.8743C56.0459 75.951 56.1531 76.0668 56.2383 76.2216C56.3236 76.3764 56.3662 76.5838 56.3662 76.8438V79H55.8633V78.5568H55.8378C55.8037 78.6278 55.7469 78.7038 55.6673 78.7848C55.5878 78.8658 55.482 78.9347 55.3499 78.9915C55.2177 79.0483 55.0565 79.0767 54.8662 79.0767ZM54.9429 78.625C55.1418 78.625 55.3094 78.5859 55.4457 78.5078C55.5835 78.4297 55.6872 78.3288 55.7568 78.2053C55.8278 78.0817 55.8633 77.9517 55.8633 77.8153V77.3551C55.842 77.3807 55.7952 77.4041 55.7227 77.4254C55.6517 77.4453 55.5693 77.4631 55.4756 77.4787C55.3832 77.4929 55.293 77.5057 55.205 77.517C55.1183 77.527 55.048 77.5355 54.994 77.5426C54.8633 77.5597 54.7412 77.5874 54.6275 77.6257C54.5153 77.6626 54.4244 77.7187 54.3548 77.794C54.2866 77.8679 54.2525 77.9687 54.2525 78.0966C54.2525 78.2713 54.3172 78.4034 54.4464 78.4929C54.5771 78.581 54.7426 78.625 54.9429 78.625ZM59.1707 80.2273C59.0854 80.2273 59.0094 80.2202 58.9427 80.206C58.8759 80.1932 58.8297 80.1804 58.8042 80.1676L58.932 79.7244C59.0542 79.7557 59.1621 79.767 59.2559 79.7585C59.3496 79.75 59.4327 79.7081 59.5052 79.6328C59.579 79.5589 59.6465 79.4389 59.7076 79.2727L59.8013 79.017L58.5911 75.7273H59.1366L60.04 78.3352H60.0741L60.9775 75.7273H61.5229L60.1337 79.4773C60.0712 79.6463 59.9938 79.7862 59.9015 79.897C59.8091 80.0092 59.7019 80.0923 59.5797 80.1463C59.459 80.2003 59.3226 80.2273 59.1707 80.2273ZM69.5523 76.4602L69.1006 76.5881C69.0722 76.5128 69.0303 76.4396 68.9749 76.3686C68.9209 76.2962 68.8471 76.2365 68.7533 76.1896C68.6596 76.1428 68.5395 76.1193 68.3932 76.1193C68.1929 76.1193 68.026 76.1655 67.8925 76.2578C67.7604 76.3487 67.6944 76.4645 67.6944 76.6051C67.6944 76.7301 67.7398 76.8288 67.8307 76.9013C67.9216 76.9737 68.0637 77.0341 68.2569 77.0824L68.7427 77.2017C69.0353 77.2727 69.2533 77.3814 69.3968 77.5277C69.5402 77.6726 69.612 77.8594 69.612 78.0881C69.612 78.2756 69.558 78.4432 69.45 78.5909C69.3435 78.7386 69.1944 78.8551 69.0026 78.9403C68.8108 79.0256 68.5878 79.0682 68.3336 79.0682C67.9998 79.0682 67.7235 78.9957 67.5047 78.8509C67.286 78.706 67.1475 78.4943 67.0892 78.2159L67.5665 78.0966C67.612 78.2727 67.6979 78.4048 67.8243 78.4929C67.9522 78.581 68.1191 78.625 68.325 78.625C68.5594 78.625 68.7455 78.5753 68.8833 78.4759C69.0225 78.375 69.0921 78.2543 69.0921 78.1136C69.0921 78 69.0523 77.9048 68.9728 77.8281C68.8932 77.75 68.7711 77.6918 68.6063 77.6534L68.0608 77.5256C67.7611 77.4545 67.5409 77.3445 67.4003 77.1953C67.2611 77.0447 67.1915 76.8565 67.1915 76.6307C67.1915 76.446 67.2434 76.2827 67.3471 76.1406C67.4522 75.9986 67.5949 75.8871 67.7753 75.8061C67.9571 75.7251 68.1631 75.6847 68.3932 75.6847C68.7171 75.6847 68.9713 75.7557 69.156 75.8977C69.3421 76.0398 69.4742 76.2273 69.5523 76.4602ZM72.0489 79V75.7273H72.5517V79H72.0489ZM72.3046 75.1818C72.2066 75.1818 72.122 75.1484 72.051 75.0817C71.9814 75.0149 71.9466 74.9347 71.9466 74.8409C71.9466 74.7472 71.9814 74.6669 72.051 74.6001C72.122 74.5334 72.2066 74.5 72.3046 74.5C72.4026 74.5 72.4864 74.5334 72.556 74.6001C72.627 74.6669 72.6625 74.7472 72.6625 74.8409C72.6625 74.9347 72.627 75.0149 72.556 75.0817C72.4864 75.1484 72.4026 75.1818 72.3046 75.1818ZM75.1527 79V75.7273H75.6385V76.2386H75.6811C75.7493 76.0639 75.8594 75.9283 76.0114 75.8317C76.1634 75.7337 76.3459 75.6847 76.559 75.6847C76.7749 75.6847 76.9546 75.7337 77.098 75.8317C77.2429 75.9283 77.3558 76.0639 77.4368 76.2386H77.4709C77.5547 76.0696 77.6804 75.9354 77.848 75.8359C78.0157 75.7351 78.2166 75.6847 78.451 75.6847C78.7436 75.6847 78.983 75.7763 79.1691 75.9595C79.3551 76.1413 79.4482 76.4247 79.4482 76.8097V79H78.9453V76.8097C78.9453 76.5682 78.8793 76.3956 78.7472 76.2919C78.6151 76.1882 78.4595 76.1364 78.2806 76.1364C78.0505 76.1364 77.8722 76.206 77.7458 76.3452C77.6193 76.483 77.5561 76.6577 77.5561 76.8693V79H77.0448V76.7585C77.0448 76.5724 76.9844 76.4226 76.8637 76.3089C76.7429 76.1939 76.5874 76.1364 76.397 76.1364C76.2664 76.1364 76.1442 76.1712 76.0306 76.2408C75.9183 76.3104 75.8274 76.407 75.7578 76.5305C75.6897 76.6527 75.6556 76.794 75.6556 76.9545V79H75.1527ZM82.0476 80.2273V75.7273H82.5334V76.2472H82.593C82.63 76.1903 82.6811 76.1179 82.7464 76.0298C82.8132 75.9403 82.9084 75.8608 83.0319 75.7912C83.1569 75.7202 83.326 75.6847 83.539 75.6847C83.8146 75.6847 84.0575 75.7536 84.2677 75.8913C84.478 76.0291 84.642 76.2244 84.7599 76.4773C84.8778 76.7301 84.9368 77.0284 84.9368 77.3722C84.9368 77.7188 84.8778 78.0192 84.7599 78.2734C84.642 78.5263 84.4787 78.7223 84.2699 78.8615C84.0611 78.9993 83.8203 79.0682 83.5476 79.0682C83.3373 79.0682 83.169 79.0334 83.0426 78.9638C82.9162 78.8928 82.8189 78.8125 82.7507 78.723C82.6825 78.6321 82.63 78.5568 82.593 78.4972H82.5504V80.2273H82.0476ZM82.5419 77.3636C82.5419 77.6108 82.5781 77.8288 82.6506 78.0178C82.723 78.2053 82.8288 78.3523 82.968 78.4588C83.1072 78.5639 83.2777 78.6165 83.4794 78.6165C83.6896 78.6165 83.865 78.5611 84.0057 78.4503C84.1477 78.3381 84.2542 78.1875 84.3253 77.9986C84.3977 77.8082 84.4339 77.5966 84.4339 77.3636C84.4339 77.1335 84.3984 76.9261 84.3274 76.7415C84.2578 76.5554 84.152 76.4084 84.0099 76.3004C83.8693 76.1911 83.6925 76.1364 83.4794 76.1364C83.2748 76.1364 83.103 76.1882 82.9638 76.2919C82.8246 76.3942 82.7194 76.5376 82.6484 76.7223C82.5774 76.9055 82.5419 77.1193 82.5419 77.3636ZM87.8867 74.6364V79H87.3838V74.6364H87.8867ZM91.8598 79.0682C91.5445 79.0682 91.2724 78.9986 91.0438 78.8594C90.8165 78.7188 90.6411 78.5227 90.5175 78.2713C90.3953 78.0185 90.3342 77.7244 90.3342 77.3892C90.3342 77.054 90.3953 76.7585 90.5175 76.5028C90.6411 76.2457 90.8129 76.0455 91.0331 75.902C91.2547 75.7571 91.5132 75.6847 91.8087 75.6847C91.9791 75.6847 92.1474 75.7131 92.3136 75.7699C92.4798 75.8267 92.6311 75.919 92.7675 76.0469C92.9038 76.1733 93.0125 76.3409 93.0935 76.5497C93.1744 76.7585 93.2149 77.0156 93.2149 77.321V77.5341H90.6922V77.0994H92.7036C92.7036 76.9148 92.6666 76.75 92.5928 76.6051C92.5203 76.4602 92.4166 76.3459 92.2817 76.2621C92.1482 76.1783 91.9905 76.1364 91.8087 76.1364C91.6084 76.1364 91.4351 76.1861 91.2888 76.2855C91.1439 76.3835 91.0324 76.5114 90.9543 76.669C90.8761 76.8267 90.8371 76.9957 90.8371 77.1761V77.4659C90.8371 77.7131 90.8797 77.9226 90.9649 78.0945C91.0516 78.2649 91.1716 78.3949 91.325 78.4844C91.4784 78.5724 91.6567 78.6165 91.8598 78.6165C91.9919 78.6165 92.1112 78.598 92.2178 78.5611C92.3257 78.5227 92.4188 78.4659 92.4969 78.3906C92.575 78.3139 92.6354 78.2187 92.678 78.1051L93.1638 78.2415C93.1126 78.4062 93.0267 78.5511 92.906 78.6761C92.7852 78.7997 92.6361 78.8963 92.4585 78.9659C92.281 79.0341 92.0814 79.0682 91.8598 79.0682ZM96.0263 79.0341C95.9212 79.0341 95.831 78.9964 95.7557 78.9212C95.6804 78.8459 95.6428 78.7557 95.6428 78.6506C95.6428 78.5455 95.6804 78.4553 95.7557 78.38C95.831 78.3047 95.9212 78.267 96.0263 78.267C96.1314 78.267 96.2216 78.3047 96.2969 78.38C96.3722 78.4553 96.4098 78.5455 96.4098 78.6506C96.4098 78.7202 96.3921 78.7841 96.3566 78.8423C96.3225 78.9006 96.2763 78.9474 96.2181 78.983C96.1613 79.017 96.0973 79.0341 96.0263 79.0341Z" fill="white"/>
</svg>
