<svg width="21" height="21" viewBox="0 0 21 21" fill="none" xmlns="http://www.w3.org/2000/svg">
<rect width="21" height="21" rx="6" fill="#4D7C0F" fill-opacity="0.85098"/>
<path d="M8.5 5.5V7.5M12.5 5.5V7.5M15 11.5V7.5C15 7.23478 14.8946 6.98043 14.7071 6.79289C14.5196 6.60536 14.2652 6.5 14 6.5H7C6.73478 6.5 6.48043 6.60536 6.29289 6.79289C6.10536 6.98043 6 7.23478 6 7.5V14.5C6 14.7652 6.10536 15.0196 6.29289 15.2071C6.48043 15.3946 6.73478 15.5 7 15.5H11M6 9.5H15M12.5 14.5L13.5 15.5L15.5 13.5" stroke="#84CC16" stroke-linecap="round" stroke-linejoin="round"/>
</svg>
