<svg width="143" height="43" viewBox="0 0 143 43" fill="none" xmlns="http://www.w3.org/2000/svg">
<rect width="42" height="42" rx="12" fill="#4D7C0F" fill-opacity="0.85098"/>
<path d="M17 11V15M25 11V15M30 23V15C30 14.4696 29.7893 13.9609 29.4142 13.5858C29.0391 13.2107 28.5304 13 28 13H14C13.4696 13 12.9609 13.2107 12.5858 13.5858C12.2107 13.9609 12 14.4696 12 15V29C12 29.5304 12.2107 30.0391 12.5858 30.4142C12.9609 30.7893 13.4696 31 14 31H22M12 19H30M25 29L27 31L31 27" stroke="#84CC16" stroke-width="2" stroke-linecap="round" stroke-linejoin="round"/>
<path d="M64.9176 19.6562H61.1847C61.1165 19.1733 60.9773 18.7443 60.767 18.3693C60.5568 17.9886 60.2869 17.6648 59.9574 17.3977C59.6278 17.1307 59.2472 16.9261 58.8153 16.7841C58.3892 16.642 57.9261 16.571 57.4261 16.571C56.5227 16.571 55.7358 16.7955 55.0653 17.2443C54.3949 17.6875 53.875 18.3352 53.5057 19.1875C53.1364 20.0341 52.9517 21.0625 52.9517 22.2727C52.9517 23.517 53.1364 24.5625 53.5057 25.4091C53.8807 26.2557 54.4034 26.8949 55.0739 27.3267C55.7443 27.7585 56.5199 27.9744 57.4006 27.9744C57.8949 27.9744 58.3523 27.9091 58.7727 27.7784C59.1989 27.6477 59.5767 27.4574 59.9062 27.2074C60.2358 26.9517 60.5085 26.642 60.7244 26.2784C60.946 25.9148 61.0994 25.5 61.1847 25.0341L64.9176 25.0511C64.821 25.8523 64.5795 26.625 64.1932 27.3693C63.8125 28.108 63.2983 28.7699 62.6506 29.3551C62.0085 29.9347 61.2415 30.3949 60.3494 30.7358C59.4631 31.071 58.4602 31.2386 57.3409 31.2386C55.7841 31.2386 54.392 30.8864 53.1648 30.1818C51.9432 29.4773 50.9773 28.4574 50.267 27.1222C49.5625 25.7869 49.2102 24.1705 49.2102 22.2727C49.2102 20.3693 49.5682 18.75 50.2841 17.4148C51 16.0795 51.9716 15.0625 53.1989 14.3636C54.4261 13.6591 55.8068 13.3068 57.3409 13.3068C58.3523 13.3068 59.2898 13.4489 60.1534 13.733C61.0227 14.017 61.7926 14.4318 62.4631 14.9773C63.1335 15.517 63.679 16.179 64.0994 16.9631C64.5256 17.7472 64.7983 18.6449 64.9176 19.6562ZM71.1264 23.4318V31H67.4957V13.5455H71.0241V20.2188H71.1776C71.473 19.446 71.9503 18.8409 72.6094 18.4034C73.2685 17.9602 74.0952 17.7386 75.0895 17.7386C75.9986 17.7386 76.7912 17.9375 77.4673 18.3352C78.1491 18.7273 78.6776 19.2926 79.0526 20.0312C79.4332 20.7642 79.6207 21.642 79.6151 22.6648V31H75.9844V23.3125C75.9901 22.5057 75.7855 21.8778 75.3707 21.429C74.9616 20.9801 74.3878 20.7557 73.6491 20.7557C73.1548 20.7557 72.7173 20.8608 72.3366 21.071C71.9616 21.2812 71.6662 21.5881 71.4503 21.9915C71.2401 22.3892 71.1321 22.8693 71.1264 23.4318ZM88.4382 31.2557C87.0916 31.2557 85.9325 30.983 84.9609 30.4375C83.995 29.8864 83.2507 29.108 82.728 28.1023C82.2053 27.0909 81.9439 25.8949 81.9439 24.5142C81.9439 23.1676 82.2053 21.9858 82.728 20.9688C83.2507 19.9517 83.9865 19.1591 84.9354 18.5909C85.8899 18.0227 87.0092 17.7386 88.2933 17.7386C89.157 17.7386 89.9609 17.8778 90.7053 18.1562C91.4553 18.429 92.1087 18.8409 92.6655 19.392C93.228 19.9432 93.6655 20.6364 93.978 21.4716C94.2905 22.3011 94.4467 23.2727 94.4467 24.3864V25.3835H83.3928V23.1335H91.0291C91.0291 22.6108 90.9155 22.1477 90.6882 21.7443C90.4609 21.3409 90.1456 21.0256 89.7422 20.7983C89.3445 20.5653 88.8814 20.4489 88.353 20.4489C87.8018 20.4489 87.3132 20.5767 86.8871 20.8324C86.4666 21.0824 86.1371 21.4205 85.8984 21.8466C85.6598 22.267 85.5376 22.7358 85.532 23.2528V25.392C85.532 26.0398 85.6513 26.5994 85.8899 27.071C86.1342 27.5426 86.478 27.9062 86.9212 28.1619C87.3643 28.4176 87.8899 28.5455 88.4979 28.5455C88.9013 28.5455 89.2706 28.4886 89.6058 28.375C89.9411 28.2614 90.228 28.0909 90.4666 27.8636C90.7053 27.6364 90.8871 27.358 91.0121 27.0284L94.37 27.25C94.1996 28.0568 93.8501 28.7614 93.3217 29.3636C92.799 29.9602 92.1229 30.4261 91.2933 30.7614C90.4695 31.0909 89.5178 31.2557 88.4382 31.2557ZM102.731 31.2557C101.39 31.2557 100.237 30.9716 99.2706 30.4034C98.3104 29.8295 97.5717 29.0341 97.0547 28.017C96.5433 27 96.2876 25.8295 96.2876 24.5057C96.2876 23.1648 96.5462 21.9886 97.0632 20.9773C97.5859 19.9602 98.3274 19.1676 99.2876 18.5994C100.248 18.0256 101.39 17.7386 102.714 17.7386C103.856 17.7386 104.856 17.946 105.714 18.3608C106.572 18.7756 107.251 19.358 107.751 20.108C108.251 20.858 108.526 21.7386 108.577 22.75H105.151C105.055 22.0966 104.799 21.571 104.384 21.1733C103.975 20.7699 103.438 20.5682 102.773 20.5682C102.211 20.5682 101.719 20.7216 101.299 21.0284C100.884 21.3295 100.56 21.7699 100.327 22.3494C100.094 22.929 99.978 23.6307 99.978 24.4545C99.978 25.2898 100.092 26 100.319 26.5852C100.552 27.1705 100.879 27.6165 101.299 27.9233C101.719 28.2301 102.211 28.3835 102.773 28.3835C103.188 28.3835 103.56 28.2983 103.89 28.1278C104.225 27.9574 104.501 27.7102 104.717 27.3864C104.938 27.0568 105.083 26.6619 105.151 26.2017H108.577C108.521 27.2017 108.248 28.0824 107.759 28.8438C107.276 29.5994 106.609 30.1903 105.756 30.6165C104.904 31.0426 103.896 31.2557 102.731 31.2557ZM114.192 27.233L114.2 22.8778H114.729L118.922 17.9091H123.089L117.456 24.4886H116.595L114.192 27.233ZM110.902 31V13.5455H114.533V31H110.902ZM119.084 31L115.232 25.2983L117.652 22.733L123.337 31H119.084ZM128.629 13.5455V31H124.939V13.5455H128.629ZM138.56 17.9091V20.6364H130.677V17.9091H138.56ZM132.467 14.7727H136.097V26.9773C136.097 27.3125 136.148 27.5739 136.251 27.7614C136.353 27.9432 136.495 28.071 136.677 28.1449C136.864 28.2187 137.08 28.2557 137.325 28.2557C137.495 28.2557 137.665 28.2415 137.836 28.2131C138.006 28.179 138.137 28.1534 138.228 28.1364L138.799 30.8381C138.617 30.8949 138.362 30.9602 138.032 31.0341C137.702 31.1136 137.302 31.1619 136.83 31.179C135.955 31.2131 135.188 31.0966 134.529 30.8295C133.876 30.5625 133.367 30.1477 133.004 29.5852C132.64 29.0227 132.461 28.3125 132.467 27.4545V14.7727Z" fill="white"/>
<path d="M48.2898 37.1051V36.6364H51.5625V37.1051H50.1903V41H49.6619V37.1051H48.2898ZM55.607 39.6619V37.7273H56.1099V41H55.607V40.446H55.5729C55.4962 40.6122 55.3769 40.7536 55.215 40.87C55.053 40.9851 54.8485 41.0426 54.6013 41.0426C54.3968 41.0426 54.215 40.9979 54.0559 40.9084C53.8968 40.8175 53.7718 40.6811 53.6809 40.4993C53.59 40.3161 53.5445 40.0852 53.5445 39.8068V37.7273H54.0474V39.7727C54.0474 40.0114 54.1141 40.2017 54.2476 40.3438C54.3826 40.4858 54.5545 40.5568 54.7633 40.5568C54.8883 40.5568 55.0154 40.5249 55.1447 40.4609C55.2753 40.397 55.3847 40.299 55.4728 40.1669C55.5623 40.0348 55.607 39.8665 55.607 39.6619ZM58.7109 41V37.7273H59.1966V38.2216H59.2307C59.2904 38.0597 59.3984 37.9283 59.5546 37.8274C59.7109 37.7266 59.887 37.6761 60.083 37.6761C60.1199 37.6761 60.1661 37.6768 60.2215 37.6783C60.2769 37.6797 60.3188 37.6818 60.3472 37.6847V38.196C60.3302 38.1918 60.2911 38.1854 60.23 38.1768C60.1704 38.1669 60.1072 38.1619 60.0404 38.1619C59.8813 38.1619 59.7393 38.1953 59.6143 38.2621C59.4907 38.3274 59.3927 38.4183 59.3202 38.5348C59.2492 38.6499 59.2137 38.7812 59.2137 38.929V41H58.7109ZM63.1261 39.0312V41H62.6233V37.7273H63.1091V38.2386H63.1517C63.2284 38.0724 63.3449 37.9389 63.5011 37.8381C63.6574 37.7358 63.8591 37.6847 64.1062 37.6847C64.3278 37.6847 64.5217 37.7301 64.6879 37.821C64.8541 37.9105 64.9834 38.0469 65.0757 38.2301C65.168 38.4119 65.2142 38.642 65.2142 38.9205V41H64.7113V38.9545C64.7113 38.6974 64.6446 38.4972 64.5111 38.3537C64.3775 38.2088 64.1943 38.1364 63.9613 38.1364C63.8008 38.1364 63.6574 38.1712 63.5309 38.2408C63.4059 38.3104 63.3072 38.4119 63.2348 38.5455C63.1623 38.679 63.1261 38.8409 63.1261 39.0312ZM71.5044 42.2273C71.4192 42.2273 71.3432 42.2202 71.2764 42.206C71.2097 42.1932 71.1635 42.1804 71.1379 42.1676L71.2658 41.7244C71.3879 41.7557 71.4959 41.767 71.5896 41.7585C71.6834 41.75 71.7665 41.7081 71.8389 41.6328C71.9128 41.5589 71.9803 41.4389 72.0413 41.2727L72.1351 41.017L70.9249 37.7273H71.4703L72.3737 40.3352H72.4078L73.3112 37.7273H73.8567L72.4675 41.4773C72.405 41.6463 72.3276 41.7862 72.2352 41.897C72.1429 42.0092 72.0357 42.0923 71.9135 42.1463C71.7928 42.2003 71.6564 42.2273 71.5044 42.2273ZM77.4127 41.0682C77.1173 41.0682 76.8581 40.9979 76.635 40.8572C76.4135 40.7166 76.2402 40.5199 76.1152 40.267C75.9916 40.0142 75.9298 39.7187 75.9298 39.3807C75.9298 39.0398 75.9916 38.7422 76.1152 38.4879C76.2402 38.2337 76.4135 38.0362 76.635 37.8956C76.8581 37.755 77.1173 37.6847 77.4127 37.6847C77.7082 37.6847 77.9667 37.755 78.1883 37.8956C78.4113 38.0362 78.5846 38.2337 78.7082 38.4879C78.8332 38.7422 78.8957 39.0398 78.8957 39.3807C78.8957 39.7187 78.8332 40.0142 78.7082 40.267C78.5846 40.5199 78.4113 40.7166 78.1883 40.8572C77.9667 40.9979 77.7082 41.0682 77.4127 41.0682ZM77.4127 40.6165C77.6372 40.6165 77.8218 40.5589 77.9667 40.4439C78.1116 40.3288 78.2188 40.1776 78.2885 39.9901C78.3581 39.8026 78.3929 39.5994 78.3929 39.3807C78.3929 39.1619 78.3581 38.9581 78.2885 38.7692C78.2188 38.5803 78.1116 38.4276 77.9667 38.3111C77.8218 38.1946 77.6372 38.1364 77.4127 38.1364C77.1883 38.1364 77.0037 38.1946 76.8588 38.3111C76.7139 38.4276 76.6066 38.5803 76.537 38.7692C76.4674 38.9581 76.4326 39.1619 76.4326 39.3807C76.4326 39.5994 76.4674 39.8026 76.537 39.9901C76.6066 40.1776 76.7139 40.3288 76.8588 40.4439C77.0037 40.5589 77.1883 40.6165 77.4127 40.6165ZM83.4058 39.6619V37.7273H83.9086V41H83.4058V40.446H83.3717C83.295 40.6122 83.1757 40.7536 83.0137 40.87C82.8518 40.9851 82.6472 41.0426 82.4001 41.0426C82.1955 41.0426 82.0137 40.9979 81.8546 40.9084C81.6955 40.8175 81.5705 40.6811 81.4796 40.4993C81.3887 40.3161 81.3433 40.0852 81.3433 39.8068V37.7273H81.8461V39.7727C81.8461 40.0114 81.9129 40.2017 82.0464 40.3438C82.1813 40.4858 82.3532 40.5568 82.562 40.5568C82.687 40.5568 82.8142 40.5249 82.9434 40.4609C83.0741 40.397 83.1835 40.299 83.2715 40.1669C83.361 40.0348 83.4058 39.8665 83.4058 39.6619ZM86.5096 41V37.7273H86.9954V38.2216H87.0295C87.0891 38.0597 87.1971 37.9283 87.3534 37.8274C87.5096 37.7266 87.6857 37.6761 87.8818 37.6761C87.9187 37.6761 87.9649 37.6768 88.0203 37.6783C88.0757 37.6797 88.1176 37.6818 88.146 37.6847V38.196C88.1289 38.1918 88.0899 38.1854 88.0288 38.1768C87.9691 38.1669 87.9059 38.1619 87.8391 38.1619C87.6801 38.1619 87.538 38.1953 87.413 38.2621C87.2894 38.3274 87.1914 38.4183 87.119 38.5348C87.048 38.6499 87.0124 38.7812 87.0124 38.929V41H86.5096ZM95.0253 41.0682C94.7526 41.0682 94.5118 40.9993 94.303 40.8615C94.0942 40.7223 93.9309 40.5263 93.813 40.2734C93.6951 40.0192 93.6361 39.7188 93.6361 39.3722C93.6361 39.0284 93.6951 38.7301 93.813 38.4773C93.9309 38.2244 94.0949 38.0291 94.3051 37.8913C94.5154 37.7536 94.7583 37.6847 95.0338 37.6847C95.2469 37.6847 95.4152 37.7202 95.5388 37.7912C95.6638 37.8608 95.759 37.9403 95.8243 38.0298C95.8911 38.1179 95.9429 38.1903 95.9799 38.2472H96.0225V36.6364H96.5253V41H96.0395V40.4972H95.9799C95.9429 40.5568 95.8904 40.6321 95.8222 40.723C95.754 40.8125 95.6567 40.8928 95.5303 40.9638C95.4039 41.0334 95.2355 41.0682 95.0253 41.0682ZM95.0935 40.6165C95.2952 40.6165 95.4657 40.5639 95.6049 40.4588C95.7441 40.3523 95.8499 40.2053 95.9223 40.0178C95.9948 39.8288 96.031 39.6108 96.031 39.3636C96.031 39.1193 95.9955 38.9055 95.9245 38.7223C95.8534 38.5376 95.7483 38.3942 95.6091 38.2919C95.4699 38.1882 95.298 38.1364 95.0935 38.1364C94.8804 38.1364 94.7029 38.1911 94.5608 38.3004C94.4202 38.4084 94.3144 38.5554 94.2434 38.7415C94.1738 38.9261 94.139 39.1335 94.139 39.3636C94.139 39.5966 94.1745 39.8082 94.2455 39.9986C94.3179 40.1875 94.4245 40.3381 94.5651 40.4503C94.7071 40.5611 94.8833 40.6165 95.0935 40.6165ZM100.159 41.0767C99.9518 41.0767 99.7636 41.0376 99.5945 40.9595C99.4255 40.88 99.2913 40.7656 99.1918 40.6165C99.0924 40.4659 99.0427 40.2841 99.0427 40.071C99.0427 39.8835 99.0796 39.7315 99.1535 39.6151C99.2273 39.4972 99.3261 39.4048 99.4496 39.3381C99.5732 39.2713 99.7096 39.2216 99.8587 39.1889C100.009 39.1548 100.161 39.1278 100.313 39.108C100.511 39.0824 100.673 39.0632 100.796 39.0504C100.921 39.0362 101.012 39.0128 101.069 38.9801C101.127 38.9474 101.156 38.8906 101.156 38.8097V38.7926C101.156 38.5824 101.099 38.419 100.984 38.3026C100.87 38.1861 100.698 38.1278 100.466 38.1278C100.226 38.1278 100.038 38.1804 99.9013 38.2855C99.765 38.3906 99.6691 38.5028 99.6137 38.6222L99.1364 38.4517C99.2217 38.2528 99.3353 38.098 99.4773 37.9872C99.6208 37.875 99.7771 37.7969 99.9461 37.7528C100.117 37.7074 100.284 37.6847 100.449 37.6847C100.554 37.6847 100.675 37.6974 100.811 37.723C100.949 37.7472 101.082 37.7976 101.21 37.8743C101.339 37.951 101.446 38.0668 101.531 38.2216C101.617 38.3764 101.659 38.5838 101.659 38.8438V41H101.156V40.5568H101.131C101.097 40.6278 101.04 40.7038 100.96 40.7848C100.881 40.8658 100.775 40.9347 100.643 40.9915C100.511 41.0483 100.349 41.0767 100.159 41.0767ZM100.236 40.625C100.435 40.625 100.602 40.5859 100.739 40.5078C100.876 40.4297 100.98 40.3288 101.05 40.2053C101.121 40.0817 101.156 39.9517 101.156 39.8153V39.3551C101.135 39.3807 101.088 39.4041 101.016 39.4254C100.945 39.4453 100.862 39.4631 100.769 39.4787C100.676 39.4929 100.586 39.5057 100.498 39.517C100.411 39.527 100.341 39.5355 100.287 39.5426C100.156 39.5597 100.034 39.5874 99.9205 39.6257C99.8083 39.6626 99.7174 39.7187 99.6478 39.794C99.5796 39.8679 99.5455 39.9687 99.5455 40.0966C99.5455 40.2713 99.6101 40.4034 99.7394 40.4929C99.8701 40.581 100.036 40.625 100.236 40.625ZM104.464 42.2273C104.378 42.2273 104.302 42.2202 104.236 42.206C104.169 42.1932 104.123 42.1804 104.097 42.1676L104.225 41.7244C104.347 41.7557 104.455 41.767 104.549 41.7585C104.643 41.75 104.726 41.7081 104.798 41.6328C104.872 41.5589 104.939 41.4389 105.001 41.2727L105.094 41.017L103.884 37.7273H104.43L105.333 40.3352H105.367L106.27 37.7273H106.816L105.427 41.4773C105.364 41.6463 105.287 41.7862 105.194 41.897C105.102 42.0092 104.995 42.0923 104.873 42.1463C104.752 42.2003 104.616 42.2273 104.464 42.2273ZM114.845 38.4602L114.394 38.5881C114.365 38.5128 114.323 38.4396 114.268 38.3686C114.214 38.2962 114.14 38.2365 114.046 38.1896C113.953 38.1428 113.832 38.1193 113.686 38.1193C113.486 38.1193 113.319 38.1655 113.185 38.2578C113.053 38.3487 112.987 38.4645 112.987 38.6051C112.987 38.7301 113.033 38.8288 113.124 38.9013C113.215 38.9737 113.357 39.0341 113.55 39.0824L114.036 39.2017C114.328 39.2727 114.546 39.3814 114.69 39.5277C114.833 39.6726 114.905 39.8594 114.905 40.0881C114.905 40.2756 114.851 40.4432 114.743 40.5909C114.636 40.7386 114.487 40.8551 114.296 40.9403C114.104 41.0256 113.881 41.0682 113.627 41.0682C113.293 41.0682 113.016 40.9957 112.798 40.8509C112.579 40.706 112.44 40.4943 112.382 40.2159L112.859 40.0966C112.905 40.2727 112.991 40.4048 113.117 40.4929C113.245 40.581 113.412 40.625 113.618 40.625C113.852 40.625 114.038 40.5753 114.176 40.4759C114.315 40.375 114.385 40.2543 114.385 40.1136C114.385 40 114.345 39.9048 114.266 39.8281C114.186 39.75 114.064 39.6918 113.899 39.6534L113.354 39.5256C113.054 39.4545 112.834 39.3445 112.693 39.1953C112.554 39.0447 112.484 38.8565 112.484 38.6307C112.484 38.446 112.536 38.2827 112.64 38.1406C112.745 37.9986 112.888 37.8871 113.068 37.8061C113.25 37.7251 113.456 37.6847 113.686 37.6847C114.01 37.6847 114.264 37.7557 114.449 37.8977C114.635 38.0398 114.767 38.2273 114.845 38.4602ZM117.342 41V37.7273H117.845V41H117.342ZM117.598 37.1818C117.5 37.1818 117.415 37.1484 117.344 37.0817C117.274 37.0149 117.24 36.9347 117.24 36.8409C117.24 36.7472 117.274 36.6669 117.344 36.6001C117.415 36.5334 117.5 36.5 117.598 36.5C117.696 36.5 117.779 36.5334 117.849 36.6001C117.92 36.6669 117.956 36.7472 117.956 36.8409C117.956 36.9347 117.92 37.0149 117.849 37.0817C117.779 37.1484 117.696 37.1818 117.598 37.1818ZM120.446 41V37.7273H120.931V38.2386H120.974C121.042 38.0639 121.152 37.9283 121.304 37.8317C121.456 37.7337 121.639 37.6847 121.852 37.6847C122.068 37.6847 122.248 37.7337 122.391 37.8317C122.536 37.9283 122.649 38.0639 122.73 38.2386H122.764C122.848 38.0696 122.973 37.9354 123.141 37.8359C123.309 37.7351 123.51 37.6847 123.744 37.6847C124.037 37.6847 124.276 37.7763 124.462 37.9595C124.648 38.1413 124.741 38.4247 124.741 38.8097V41H124.238V38.8097C124.238 38.5682 124.172 38.3956 124.04 38.2919C123.908 38.1882 123.753 38.1364 123.574 38.1364C123.343 38.1364 123.165 38.206 123.039 38.3452C122.912 38.483 122.849 38.6577 122.849 38.8693V41H122.338V38.7585C122.338 38.5724 122.277 38.4226 122.157 38.3089C122.036 38.1939 121.88 38.1364 121.69 38.1364C121.559 38.1364 121.437 38.1712 121.324 38.2408C121.211 38.3104 121.12 38.407 121.051 38.5305C120.983 38.6527 120.949 38.794 120.949 38.9545V41H120.446ZM127.341 42.2273V37.7273H127.826V38.2472H127.886C127.923 38.1903 127.974 38.1179 128.039 38.0298C128.106 37.9403 128.201 37.8608 128.325 37.7912C128.45 37.7202 128.619 37.6847 128.832 37.6847C129.108 37.6847 129.35 37.7536 129.561 37.8913C129.771 38.0291 129.935 38.2244 130.053 38.4773C130.171 38.7301 130.23 39.0284 130.23 39.3722C130.23 39.7188 130.171 40.0192 130.053 40.2734C129.935 40.5263 129.772 40.7223 129.563 40.8615C129.354 40.9993 129.113 41.0682 128.841 41.0682C128.63 41.0682 128.462 41.0334 128.336 40.9638C128.209 40.8928 128.112 40.8125 128.044 40.723C127.975 40.6321 127.923 40.5568 127.886 40.4972H127.843V42.2273H127.341ZM127.835 39.3636C127.835 39.6108 127.871 39.8288 127.944 40.0178C128.016 40.2053 128.122 40.3523 128.261 40.4588C128.4 40.5639 128.571 40.6165 128.772 40.6165C128.983 40.6165 129.158 40.5611 129.299 40.4503C129.441 40.3381 129.547 40.1875 129.618 39.9986C129.691 39.8082 129.727 39.5966 129.727 39.3636C129.727 39.1335 129.691 38.9261 129.62 38.7415C129.551 38.5554 129.445 38.4084 129.303 38.3004C129.162 38.1911 128.985 38.1364 128.772 38.1364C128.568 38.1364 128.396 38.1882 128.257 38.2919C128.118 38.3942 128.012 38.5376 127.941 38.7223C127.87 38.9055 127.835 39.1193 127.835 39.3636ZM133.18 36.6364V41H132.677V36.6364H133.18ZM137.153 41.0682C136.837 41.0682 136.565 40.9986 136.337 40.8594C136.109 40.7188 135.934 40.5227 135.81 40.2713C135.688 40.0185 135.627 39.7244 135.627 39.3892C135.627 39.054 135.688 38.7585 135.81 38.5028C135.934 38.2457 136.106 38.0455 136.326 37.902C136.548 37.7571 136.806 37.6847 137.102 37.6847C137.272 37.6847 137.44 37.7131 137.607 37.7699C137.773 37.8267 137.924 37.919 138.06 38.0469C138.197 38.1733 138.305 38.3409 138.386 38.5497C138.467 38.7585 138.508 39.0156 138.508 39.321V39.5341H135.985V39.0994H137.997C137.997 38.9148 137.96 38.75 137.886 38.6051C137.813 38.4602 137.71 38.3459 137.575 38.2621C137.441 38.1783 137.283 38.1364 137.102 38.1364C136.901 38.1364 136.728 38.1861 136.582 38.2855C136.437 38.3835 136.325 38.5114 136.247 38.669C136.169 38.8267 136.13 38.9957 136.13 39.1761V39.4659C136.13 39.7131 136.173 39.9226 136.258 40.0945C136.345 40.2649 136.465 40.3949 136.618 40.4844C136.771 40.5724 136.95 40.6165 137.153 40.6165C137.285 40.6165 137.404 40.598 137.511 40.5611C137.619 40.5227 137.712 40.4659 137.79 40.3906C137.868 40.3139 137.928 40.2187 137.971 40.1051L138.457 40.2415C138.406 40.4062 138.32 40.5511 138.199 40.6761C138.078 40.7997 137.929 40.8963 137.751 40.9659C137.574 41.0341 137.374 41.0682 137.153 41.0682ZM141.319 41.0341C141.214 41.0341 141.124 40.9964 141.049 40.9212C140.973 40.8459 140.936 40.7557 140.936 40.6506C140.936 40.5455 140.973 40.4553 141.049 40.38C141.124 40.3047 141.214 40.267 141.319 40.267C141.424 40.267 141.515 40.3047 141.59 40.38C141.665 40.4553 141.703 40.5455 141.703 40.6506C141.703 40.7202 141.685 40.7841 141.65 40.8423C141.615 40.9006 141.569 40.9474 141.511 40.983C141.454 41.017 141.39 41.0341 141.319 41.0341Z" fill="white"/>
</svg>
