<svg width="95" height="81" viewBox="0 0 95 81" fill="none" xmlns="http://www.w3.org/2000/svg">
<rect x="22" width="42" height="42" rx="12" fill="#4D7C0F" fill-opacity="0.85098"/>
<path d="M39 11V15M47 11V15M52 23V15C52 14.4696 51.7893 13.9609 51.4142 13.5858C51.0391 13.2107 50.5304 13 50 13H36C35.4696 13 34.9609 13.2107 34.5858 13.5858C34.2107 13.9609 34 14.4696 34 15V29C34 29.5304 34.2107 30.0391 34.5858 30.4142C34.9609 30.7893 35.4696 31 36 31H44M34 19H52M47 29L49 31L53 27" stroke="#84CC16" stroke-width="2" stroke-linecap="round" stroke-linejoin="round"/>
<path d="M16.9176 57.6562H13.1847C13.1165 57.1733 12.9773 56.7443 12.767 56.3693C12.5568 55.9886 12.2869 55.6648 11.9574 55.3977C11.6278 55.1307 11.2472 54.9261 10.8153 54.7841C10.3892 54.642 9.92614 54.571 9.42614 54.571C8.52273 54.571 7.7358 54.7955 7.06534 55.2443C6.39489 55.6875 5.875 56.3352 5.50568 57.1875C5.13636 58.0341 4.9517 59.0625 4.9517 60.2727C4.9517 61.517 5.13636 62.5625 5.50568 63.4091C5.88068 64.2557 6.40341 64.8949 7.07386 65.3267C7.74432 65.7585 8.51989 65.9744 9.40057 65.9744C9.89489 65.9744 10.3523 65.9091 10.7727 65.7784C11.1989 65.6477 11.5767 65.4574 11.9062 65.2074C12.2358 64.9517 12.5085 64.642 12.7244 64.2784C12.946 63.9148 13.0994 63.5 13.1847 63.0341L16.9176 63.0511C16.821 63.8523 16.5795 64.625 16.1932 65.3693C15.8125 66.108 15.2983 66.7699 14.6506 67.3551C14.0085 67.9347 13.2415 68.3949 12.3494 68.7358C11.4631 69.071 10.4602 69.2386 9.34091 69.2386C7.78409 69.2386 6.39205 68.8864 5.16477 68.1818C3.94318 67.4773 2.97727 66.4574 2.26705 65.1222C1.5625 63.7869 1.21023 62.1705 1.21023 60.2727C1.21023 58.3693 1.56818 56.75 2.28409 55.4148C3 54.0795 3.97159 53.0625 5.19886 52.3636C6.42614 51.6591 7.80682 51.3068 9.34091 51.3068C10.3523 51.3068 11.2898 51.4489 12.1534 51.733C13.0227 52.017 13.7926 52.4318 14.4631 52.9773C15.1335 53.517 15.679 54.179 16.0994 54.9631C16.5256 55.7472 16.7983 56.6449 16.9176 57.6562ZM23.1264 61.4318V69H19.4957V51.5455H23.0241V58.2188H23.1776C23.473 57.446 23.9503 56.8409 24.6094 56.4034C25.2685 55.9602 26.0952 55.7386 27.0895 55.7386C27.9986 55.7386 28.7912 55.9375 29.4673 56.3352C30.1491 56.7273 30.6776 57.2926 31.0526 58.0312C31.4332 58.7642 31.6207 59.642 31.6151 60.6648V69H27.9844V61.3125C27.9901 60.5057 27.7855 59.8778 27.3707 59.429C26.9616 58.9801 26.3878 58.7557 25.6491 58.7557C25.1548 58.7557 24.7173 58.8608 24.3366 59.071C23.9616 59.2812 23.6662 59.5881 23.4503 59.9915C23.2401 60.3892 23.1321 60.8693 23.1264 61.4318ZM40.4382 69.2557C39.0916 69.2557 37.9325 68.983 36.9609 68.4375C35.995 67.8864 35.2507 67.108 34.728 66.1023C34.2053 65.0909 33.9439 63.8949 33.9439 62.5142C33.9439 61.1676 34.2053 59.9858 34.728 58.9688C35.2507 57.9517 35.9865 57.1591 36.9354 56.5909C37.8899 56.0227 39.0092 55.7386 40.2933 55.7386C41.157 55.7386 41.9609 55.8778 42.7053 56.1562C43.4553 56.429 44.1087 56.8409 44.6655 57.392C45.228 57.9432 45.6655 58.6364 45.978 59.4716C46.2905 60.3011 46.4467 61.2727 46.4467 62.3864V63.3835H35.3928V61.1335H43.0291C43.0291 60.6108 42.9155 60.1477 42.6882 59.7443C42.4609 59.3409 42.1456 59.0256 41.7422 58.7983C41.3445 58.5653 40.8814 58.4489 40.353 58.4489C39.8018 58.4489 39.3132 58.5767 38.8871 58.8324C38.4666 59.0824 38.1371 59.4205 37.8984 59.8466C37.6598 60.267 37.5376 60.7358 37.532 61.2528V63.392C37.532 64.0398 37.6513 64.5994 37.8899 65.071C38.1342 65.5426 38.478 65.9062 38.9212 66.1619C39.3643 66.4176 39.8899 66.5455 40.4979 66.5455C40.9013 66.5455 41.2706 66.4886 41.6058 66.375C41.9411 66.2614 42.228 66.0909 42.4666 65.8636C42.7053 65.6364 42.8871 65.358 43.0121 65.0284L46.37 65.25C46.1996 66.0568 45.8501 66.7614 45.3217 67.3636C44.799 67.9602 44.1229 68.4261 43.2933 68.7614C42.4695 69.0909 41.5178 69.2557 40.4382 69.2557ZM54.7308 69.2557C53.3899 69.2557 52.2365 68.9716 51.2706 68.4034C50.3104 67.8295 49.5717 67.0341 49.0547 66.017C48.5433 65 48.2876 63.8295 48.2876 62.5057C48.2876 61.1648 48.5462 59.9886 49.0632 58.9773C49.5859 57.9602 50.3274 57.1676 51.2876 56.5994C52.2479 56.0256 53.3899 55.7386 54.7138 55.7386C55.8558 55.7386 56.8558 55.946 57.7138 56.3608C58.5717 56.7756 59.2507 57.358 59.7507 58.108C60.2507 58.858 60.5263 59.7386 60.5774 60.75H57.1513C57.0547 60.0966 56.799 59.571 56.3842 59.1733C55.9751 58.7699 55.4382 58.5682 54.7734 58.5682C54.2109 58.5682 53.7195 58.7216 53.299 59.0284C52.8842 59.3295 52.5604 59.7699 52.3274 60.3494C52.0945 60.929 51.978 61.6307 51.978 62.4545C51.978 63.2898 52.0916 64 52.3189 64.5852C52.5518 65.1705 52.8786 65.6165 53.299 65.9233C53.7195 66.2301 54.2109 66.3835 54.7734 66.3835C55.1882 66.3835 55.5604 66.2983 55.8899 66.1278C56.2251 65.9574 56.5007 65.7102 56.7166 65.3864C56.9382 65.0568 57.0831 64.6619 57.1513 64.2017H60.5774C60.5206 65.2017 60.2479 66.0824 59.7592 66.8438C59.2763 67.5994 58.6087 68.1903 57.7564 68.6165C56.9041 69.0426 55.8956 69.2557 54.7308 69.2557ZM66.1918 65.233L66.2003 60.8778H66.7287L70.9219 55.9091H75.0895L69.456 62.4886H68.5952L66.1918 65.233ZM62.902 69V51.5455H66.5327V69H62.902ZM71.0838 69L67.2315 63.2983L69.652 60.733L75.3366 69H71.0838ZM80.6293 51.5455V69H76.9389V51.5455H80.6293ZM90.5604 55.9091V58.6364H82.6768V55.9091H90.5604ZM84.4666 52.7727H88.0973V64.9773C88.0973 65.3125 88.1484 65.5739 88.2507 65.7614C88.353 65.9432 88.495 66.071 88.6768 66.1449C88.8643 66.2187 89.0803 66.2557 89.3246 66.2557C89.495 66.2557 89.6655 66.2415 89.8359 66.2131C90.0064 66.179 90.1371 66.1534 90.228 66.1364L90.799 68.8381C90.6172 68.8949 90.3615 68.9602 90.032 69.0341C89.7024 69.1136 89.3018 69.1619 88.8303 69.179C87.9553 69.2131 87.1882 69.0966 86.5291 68.8295C85.8757 68.5625 85.3672 68.1477 85.0036 67.5852C84.6399 67.0227 84.4609 66.3125 84.4666 65.4545V52.7727Z" fill="white"/>
<path d="M0.289773 75.1051V74.6364H3.5625V75.1051H2.19034V79H1.66193V75.1051H0.289773ZM7.60702 77.6619V75.7273H8.10986V79H7.60702V78.446H7.57293C7.49623 78.6122 7.37691 78.7536 7.21498 78.87C7.05305 78.9851 6.8485 79.0426 6.60134 79.0426C6.3968 79.0426 6.21498 78.9979 6.05589 78.9084C5.8968 78.8175 5.7718 78.6811 5.68089 78.4993C5.58998 78.3161 5.54452 78.0852 5.54452 77.8068V75.7273H6.04736V77.7727C6.04736 78.0114 6.11413 78.2017 6.24765 78.3438C6.38259 78.4858 6.55447 78.5568 6.76327 78.5568C6.88827 78.5568 7.0154 78.5249 7.14467 78.4609C7.27535 78.397 7.38472 78.299 7.47279 78.1669C7.56228 78.0348 7.60702 77.8665 7.60702 77.6619ZM10.7109 79V75.7273H11.1966V76.2216H11.2307C11.2904 76.0597 11.3984 75.9283 11.5546 75.8274C11.7109 75.7266 11.887 75.6761 12.083 75.6761C12.1199 75.6761 12.1661 75.6768 12.2215 75.6783C12.2769 75.6797 12.3188 75.6818 12.3472 75.6847V76.196C12.3302 76.1918 12.2911 76.1854 12.23 76.1768C12.1704 76.1669 12.1072 76.1619 12.0404 76.1619C11.8813 76.1619 11.7393 76.1953 11.6143 76.2621C11.4907 76.3274 11.3927 76.4183 11.3202 76.5348C11.2492 76.6499 11.2137 76.7812 11.2137 76.929V79H10.7109ZM15.1261 77.0312V79H14.6233V75.7273H15.1091V76.2386H15.1517C15.2284 76.0724 15.3449 75.9389 15.5011 75.8381C15.6574 75.7358 15.8591 75.6847 16.1062 75.6847C16.3278 75.6847 16.5217 75.7301 16.6879 75.821C16.8541 75.9105 16.9834 76.0469 17.0757 76.2301C17.168 76.4119 17.2142 76.642 17.2142 76.9205V79H16.7113V76.9545C16.7113 76.6974 16.6446 76.4972 16.5111 76.3537C16.3775 76.2088 16.1943 76.1364 15.9613 76.1364C15.8008 76.1364 15.6574 76.1712 15.5309 76.2408C15.4059 76.3104 15.3072 76.4119 15.2348 76.5455C15.1623 76.679 15.1261 76.8409 15.1261 77.0312ZM23.5044 80.2273C23.4192 80.2273 23.3432 80.2202 23.2764 80.206C23.2097 80.1932 23.1635 80.1804 23.1379 80.1676L23.2658 79.7244C23.3879 79.7557 23.4959 79.767 23.5896 79.7585C23.6834 79.75 23.7665 79.7081 23.8389 79.6328C23.9128 79.5589 23.9803 79.4389 24.0413 79.2727L24.1351 79.017L22.9249 75.7273H23.4703L24.3737 78.3352H24.4078L25.3112 75.7273H25.8567L24.4675 79.4773C24.405 79.6463 24.3276 79.7862 24.2352 79.897C24.1429 80.0092 24.0357 80.0923 23.9135 80.1463C23.7928 80.2003 23.6564 80.2273 23.5044 80.2273ZM29.4127 79.0682C29.1173 79.0682 28.8581 78.9979 28.635 78.8572C28.4135 78.7166 28.2402 78.5199 28.1152 78.267C27.9916 78.0142 27.9298 77.7187 27.9298 77.3807C27.9298 77.0398 27.9916 76.7422 28.1152 76.4879C28.2402 76.2337 28.4135 76.0362 28.635 75.8956C28.8581 75.755 29.1173 75.6847 29.4127 75.6847C29.7082 75.6847 29.9667 75.755 30.1883 75.8956C30.4113 76.0362 30.5846 76.2337 30.7082 76.4879C30.8332 76.7422 30.8957 77.0398 30.8957 77.3807C30.8957 77.7187 30.8332 78.0142 30.7082 78.267C30.5846 78.5199 30.4113 78.7166 30.1883 78.8572C29.9667 78.9979 29.7082 79.0682 29.4127 79.0682ZM29.4127 78.6165C29.6372 78.6165 29.8218 78.5589 29.9667 78.4439C30.1116 78.3288 30.2188 78.1776 30.2885 77.9901C30.3581 77.8026 30.3929 77.5994 30.3929 77.3807C30.3929 77.1619 30.3581 76.9581 30.2885 76.7692C30.2188 76.5803 30.1116 76.4276 29.9667 76.3111C29.8218 76.1946 29.6372 76.1364 29.4127 76.1364C29.1883 76.1364 29.0037 76.1946 28.8588 76.3111C28.7139 76.4276 28.6066 76.5803 28.537 76.7692C28.4674 76.9581 28.4326 77.1619 28.4326 77.3807C28.4326 77.5994 28.4674 77.8026 28.537 77.9901C28.6066 78.1776 28.7139 78.3288 28.8588 78.4439C29.0037 78.5589 29.1883 78.6165 29.4127 78.6165ZM35.4058 77.6619V75.7273H35.9086V79H35.4058V78.446H35.3717C35.295 78.6122 35.1757 78.7536 35.0137 78.87C34.8518 78.9851 34.6472 79.0426 34.4001 79.0426C34.1955 79.0426 34.0137 78.9979 33.8546 78.9084C33.6955 78.8175 33.5705 78.6811 33.4796 78.4993C33.3887 78.3161 33.3433 78.0852 33.3433 77.8068V75.7273H33.8461V77.7727C33.8461 78.0114 33.9129 78.2017 34.0464 78.3438C34.1813 78.4858 34.3532 78.5568 34.562 78.5568C34.687 78.5568 34.8142 78.5249 34.9434 78.4609C35.0741 78.397 35.1835 78.299 35.2715 78.1669C35.361 78.0348 35.4058 77.8665 35.4058 77.6619ZM38.5096 79V75.7273H38.9954V76.2216H39.0295C39.0891 76.0597 39.1971 75.9283 39.3534 75.8274C39.5096 75.7266 39.6857 75.6761 39.8818 75.6761C39.9187 75.6761 39.9649 75.6768 40.0203 75.6783C40.0757 75.6797 40.1176 75.6818 40.146 75.6847V76.196C40.1289 76.1918 40.0899 76.1854 40.0288 76.1768C39.9691 76.1669 39.9059 76.1619 39.8391 76.1619C39.6801 76.1619 39.538 76.1953 39.413 76.2621C39.2894 76.3274 39.1914 76.4183 39.119 76.5348C39.048 76.6499 39.0124 76.7812 39.0124 76.929V79H38.5096ZM47.0253 79.0682C46.7526 79.0682 46.5118 78.9993 46.303 78.8615C46.0942 78.7223 45.9309 78.5263 45.813 78.2734C45.6951 78.0192 45.6361 77.7188 45.6361 77.3722C45.6361 77.0284 45.6951 76.7301 45.813 76.4773C45.9309 76.2244 46.0949 76.0291 46.3051 75.8913C46.5154 75.7536 46.7583 75.6847 47.0338 75.6847C47.2469 75.6847 47.4152 75.7202 47.5388 75.7912C47.6638 75.8608 47.759 75.9403 47.8243 76.0298C47.8911 76.1179 47.9429 76.1903 47.9799 76.2472H48.0225V74.6364H48.5253V79H48.0395V78.4972H47.9799C47.9429 78.5568 47.8904 78.6321 47.8222 78.723C47.754 78.8125 47.6567 78.8928 47.5303 78.9638C47.4039 79.0334 47.2355 79.0682 47.0253 79.0682ZM47.0935 78.6165C47.2952 78.6165 47.4657 78.5639 47.6049 78.4588C47.7441 78.3523 47.8499 78.2053 47.9223 78.0178C47.9948 77.8288 48.031 77.6108 48.031 77.3636C48.031 77.1193 47.9955 76.9055 47.9245 76.7223C47.8534 76.5376 47.7483 76.3942 47.6091 76.2919C47.4699 76.1882 47.298 76.1364 47.0935 76.1364C46.8804 76.1364 46.7029 76.1911 46.5608 76.3004C46.4202 76.4084 46.3144 76.5554 46.2434 76.7415C46.1738 76.9261 46.139 77.1335 46.139 77.3636C46.139 77.5966 46.1745 77.8082 46.2455 77.9986C46.3179 78.1875 46.4245 78.3381 46.5651 78.4503C46.7071 78.5611 46.8833 78.6165 47.0935 78.6165ZM52.1592 79.0767C51.9518 79.0767 51.7636 79.0376 51.5945 78.9595C51.4255 78.88 51.2913 78.7656 51.1918 78.6165C51.0924 78.4659 51.0427 78.2841 51.0427 78.071C51.0427 77.8835 51.0796 77.7315 51.1535 77.6151C51.2273 77.4972 51.3261 77.4048 51.4496 77.3381C51.5732 77.2713 51.7096 77.2216 51.8587 77.1889C52.0093 77.1548 52.1606 77.1278 52.3126 77.108C52.5114 77.0824 52.6726 77.0632 52.7962 77.0504C52.9212 77.0362 53.0121 77.0128 53.069 76.9801C53.1272 76.9474 53.1563 76.8906 53.1563 76.8097V76.7926C53.1563 76.5824 53.0988 76.419 52.9837 76.3026C52.8701 76.1861 52.6975 76.1278 52.466 76.1278C52.2259 76.1278 52.0377 76.1804 51.9013 76.2855C51.765 76.3906 51.6691 76.5028 51.6137 76.6222L51.1364 76.4517C51.2217 76.2528 51.3353 76.098 51.4773 75.9872C51.6208 75.875 51.7771 75.7969 51.9461 75.7528C52.1165 75.7074 52.2842 75.6847 52.4489 75.6847C52.554 75.6847 52.6748 75.6974 52.8111 75.723C52.9489 75.7472 53.0817 75.7976 53.2096 75.8743C53.3388 75.951 53.4461 76.0668 53.5313 76.2216C53.6165 76.3764 53.6592 76.5838 53.6592 76.8438V79H53.1563V78.5568H53.1307C53.0967 78.6278 53.0398 78.7038 52.9603 78.7848C52.8807 78.8658 52.7749 78.9347 52.6428 78.9915C52.5107 79.0483 52.3495 79.0767 52.1592 79.0767ZM52.2359 78.625C52.4347 78.625 52.6023 78.5859 52.7387 78.5078C52.8765 78.4297 52.9802 78.3288 53.0498 78.2053C53.1208 78.0817 53.1563 77.9517 53.1563 77.8153V77.3551C53.135 77.3807 53.0881 77.4041 53.0157 77.4254C52.9447 77.4453 52.8623 77.4631 52.7685 77.4787C52.6762 77.4929 52.586 77.5057 52.4979 77.517C52.4113 77.527 52.341 77.5355 52.287 77.5426C52.1563 77.5597 52.0342 77.5874 51.9205 77.6257C51.8083 77.6626 51.7174 77.7187 51.6478 77.794C51.5796 77.8679 51.5455 77.9687 51.5455 78.0966C51.5455 78.2713 51.6101 78.4034 51.7394 78.4929C51.8701 78.581 52.0356 78.625 52.2359 78.625ZM56.4636 80.2273C56.3784 80.2273 56.3024 80.2202 56.2356 80.206C56.1689 80.1932 56.1227 80.1804 56.0971 80.1676L56.225 79.7244C56.3471 79.7557 56.4551 79.767 56.5488 79.7585C56.6426 79.75 56.7257 79.7081 56.7981 79.6328C56.872 79.5589 56.9395 79.4389 57.0006 79.2727L57.0943 79.017L55.8841 75.7273H56.4295L57.3329 78.3352H57.367L58.2704 75.7273H58.8159L57.4267 79.4773C57.3642 79.6463 57.2868 79.7862 57.1944 79.897C57.1021 80.0092 56.9949 80.0923 56.8727 80.1463C56.752 80.2003 56.6156 80.2273 56.4636 80.2273ZM66.8453 76.4602L66.3936 76.5881C66.3652 76.5128 66.3233 76.4396 66.2679 76.3686C66.2139 76.2962 66.14 76.2365 66.0463 76.1896C65.9525 76.1428 65.8325 76.1193 65.6862 76.1193C65.4859 76.1193 65.319 76.1655 65.1855 76.2578C65.0534 76.3487 64.9873 76.4645 64.9873 76.6051C64.9873 76.7301 65.0328 76.8288 65.1237 76.9013C65.2146 76.9737 65.3566 77.0341 65.5498 77.0824L66.0356 77.2017C66.3282 77.2727 66.5463 77.3814 66.6897 77.5277C66.8332 77.6726 66.9049 77.8594 66.9049 78.0881C66.9049 78.2756 66.851 78.4432 66.743 78.5909C66.6365 78.7386 66.4873 78.8551 66.2956 78.9403C66.1038 79.0256 65.8808 79.0682 65.6265 79.0682C65.2927 79.0682 65.0164 78.9957 64.7977 78.8509C64.5789 78.706 64.4405 78.4943 64.3822 78.2159L64.8595 78.0966C64.9049 78.2727 64.9909 78.4048 65.1173 78.4929C65.2451 78.581 65.412 78.625 65.618 78.625C65.8524 78.625 66.0385 78.5753 66.1762 78.4759C66.3155 78.375 66.3851 78.2543 66.3851 78.1136C66.3851 78 66.3453 77.9048 66.2657 77.8281C66.1862 77.75 66.064 77.6918 65.8993 77.6534L65.3538 77.5256C65.0541 77.4545 64.8339 77.3445 64.6933 77.1953C64.5541 77.0447 64.4845 76.8565 64.4845 76.6307C64.4845 76.446 64.5363 76.2827 64.64 76.1406C64.7451 75.9986 64.8879 75.8871 65.0683 75.8061C65.2501 75.7251 65.4561 75.6847 65.6862 75.6847C66.0101 75.6847 66.2643 75.7557 66.449 75.8977C66.6351 76.0398 66.7672 76.2273 66.8453 76.4602ZM69.3419 79V75.7273H69.8447V79H69.3419ZM69.5975 75.1818C69.4995 75.1818 69.415 75.1484 69.344 75.0817C69.2744 75.0149 69.2396 74.9347 69.2396 74.8409C69.2396 74.7472 69.2744 74.6669 69.344 74.6001C69.415 74.5334 69.4995 74.5 69.5975 74.5C69.6956 74.5 69.7794 74.5334 69.849 74.6001C69.92 74.6669 69.9555 74.7472 69.9555 74.8409C69.9555 74.9347 69.92 75.0149 69.849 75.0817C69.7794 75.1484 69.6956 75.1818 69.5975 75.1818ZM72.4457 79V75.7273H72.9315V76.2386H72.9741C73.0423 76.0639 73.1524 75.9283 73.3044 75.8317C73.4563 75.7337 73.6389 75.6847 73.8519 75.6847C74.0679 75.6847 74.2475 75.7337 74.391 75.8317C74.5359 75.9283 74.6488 76.0639 74.7298 76.2386H74.7639C74.8477 76.0696 74.9734 75.9354 75.141 75.8359C75.3086 75.7351 75.5096 75.6847 75.744 75.6847C76.0366 75.6847 76.2759 75.7763 76.462 75.9595C76.6481 76.1413 76.7411 76.4247 76.7411 76.8097V79H76.2383V76.8097C76.2383 76.5682 76.1723 76.3956 76.0402 76.2919C75.9081 76.1882 75.7525 76.1364 75.5735 76.1364C75.3434 76.1364 75.1652 76.206 75.0387 76.3452C74.9123 76.483 74.8491 76.6577 74.8491 76.8693V79H74.3377V76.7585C74.3377 76.5724 74.2774 76.4226 74.1566 76.3089C74.0359 76.1939 73.8804 76.1364 73.69 76.1364C73.5593 76.1364 73.4372 76.1712 73.3235 76.2408C73.2113 76.3104 73.1204 76.407 73.0508 76.5305C72.9826 76.6527 72.9485 76.794 72.9485 76.9545V79H72.4457ZM79.3405 80.2273V75.7273H79.8263V76.2472H79.886C79.9229 76.1903 79.9741 76.1179 80.0394 76.0298C80.1062 75.9403 80.2013 75.8608 80.3249 75.7912C80.4499 75.7202 80.6189 75.6847 80.832 75.6847C81.1076 75.6847 81.3505 75.7536 81.5607 75.8913C81.7709 76.0291 81.935 76.2244 82.0529 76.4773C82.1708 76.7301 82.2297 77.0284 82.2297 77.3722C82.2297 77.7188 82.1708 78.0192 82.0529 78.2734C81.935 78.5263 81.7716 78.7223 81.5628 78.8615C81.354 78.9993 81.1133 79.0682 80.8405 79.0682C80.6303 79.0682 80.462 79.0334 80.3356 78.9638C80.2091 78.8928 80.1118 78.8125 80.0437 78.723C79.9755 78.6321 79.9229 78.5568 79.886 78.4972H79.8434V80.2273H79.3405ZM79.8349 77.3636C79.8349 77.6108 79.8711 77.8288 79.9435 78.0178C80.016 78.2053 80.1218 78.3523 80.261 78.4588C80.4002 78.5639 80.5707 78.6165 80.7724 78.6165C80.9826 78.6165 81.158 78.5611 81.2986 78.4503C81.4407 78.3381 81.5472 78.1875 81.6182 77.9986C81.6907 77.8082 81.7269 77.5966 81.7269 77.3636C81.7269 77.1335 81.6914 76.9261 81.6204 76.7415C81.5508 76.5554 81.4449 76.4084 81.3029 76.3004C81.1623 76.1911 80.9854 76.1364 80.7724 76.1364C80.5678 76.1364 80.3959 76.1882 80.2567 76.2919C80.1175 76.3942 80.0124 76.5376 79.9414 76.7223C79.8704 76.9055 79.8349 77.1193 79.8349 77.3636ZM85.1796 74.6364V79H84.6768V74.6364H85.1796ZM89.1528 79.0682C88.8374 79.0682 88.5654 78.9986 88.3367 78.8594C88.1095 78.7188 87.934 78.5227 87.8104 78.2713C87.6883 78.0185 87.6272 77.7244 87.6272 77.3892C87.6272 77.054 87.6883 76.7585 87.8104 76.5028C87.934 76.2457 88.1059 76.0455 88.3261 75.902C88.5477 75.7571 88.8062 75.6847 89.1016 75.6847C89.2721 75.6847 89.4404 75.7131 89.6066 75.7699C89.7728 75.8267 89.9241 75.919 90.0604 76.0469C90.1968 76.1733 90.3055 76.3409 90.3864 76.5497C90.4674 76.7585 90.5079 77.0156 90.5079 77.321V77.5341H87.9852V77.0994H89.9965C89.9965 76.9148 89.9596 76.75 89.8857 76.6051C89.8133 76.4602 89.7096 76.3459 89.5747 76.2621C89.4411 76.1783 89.2835 76.1364 89.1016 76.1364C88.9014 76.1364 88.7281 76.1861 88.5818 76.2855C88.4369 76.3835 88.3254 76.5114 88.2472 76.669C88.1691 76.8267 88.13 76.9957 88.13 77.1761V77.4659C88.13 77.7131 88.1727 77.9226 88.2579 78.0945C88.3445 78.2649 88.4646 78.3949 88.618 78.4844C88.7714 78.5724 88.9497 78.6165 89.1528 78.6165C89.2849 78.6165 89.4042 78.598 89.5107 78.5611C89.6187 78.5227 89.7117 78.4659 89.7898 78.3906C89.868 78.3139 89.9283 78.2187 89.971 78.1051L90.4568 78.2415C90.4056 78.4062 90.3197 78.5511 90.1989 78.6761C90.0782 78.7997 89.9291 78.8963 89.7515 78.9659C89.5739 79.0341 89.3744 79.0682 89.1528 79.0682ZM93.3193 79.0341C93.2142 79.0341 93.124 78.9964 93.0487 78.9212C92.9734 78.8459 92.9358 78.7557 92.9358 78.6506C92.9358 78.5455 92.9734 78.4553 93.0487 78.38C93.124 78.3047 93.2142 78.267 93.3193 78.267C93.4244 78.267 93.5146 78.3047 93.5899 78.38C93.6652 78.4553 93.7028 78.5455 93.7028 78.6506C93.7028 78.7202 93.685 78.7841 93.6495 78.8423C93.6154 78.9006 93.5693 78.9474 93.511 78.983C93.4542 79.017 93.3903 79.0341 93.3193 79.0341Z" fill="white"/>
</svg>
